<svg width="112" height="18" viewBox="0 0 112 18" fill="none" xmlns="http://www.w3.org/2000/svg">
<path d="M11.8983 0.180325C11.7935 0.337573 11.8459 0.625861 12.0032 0.809317C12.2915 1.15002 12.108 3.58736 11.7935 3.58736C11.7149 3.58736 11.4266 3.40391 11.1645 3.19424C10.9024 3.01079 10.09 2.69629 9.35616 2.53904C8.1768 2.25076 8.07196 2.14592 8.1768 1.56935C8.33404 0.756901 7.5478 0.835525 7.18089 1.70039C7.04985 2.01488 6.70915 2.27696 6.44707 2.27696C5.00563 2.27696 2.04412 1.62176 1.07443 1.0976C-0.209764 0.389989 -0.367011 0.704485 0.733724 1.7266C1.651 2.56525 3.01382 3.037 5.34633 3.24666C7.15468 3.40391 7.31193 3.53495 6.60432 4.24256C6.26361 4.60948 5.8967 4.66189 4.71734 4.50464C3.9311 4.39981 3.01382 4.21636 2.67312 4.08532C1.651 3.6922 1.99171 4.32119 3.11865 4.89776C3.69523 5.18605 4.66492 5.42192 5.32012 5.42192C6.2374 5.42192 6.52569 5.52676 6.65673 5.91988C6.8926 6.6537 6.52569 7.25648 5.84428 7.25648C5.08425 7.25648 5.00563 7.91168 5.71324 8.3048C6.26361 8.59309 7.39056 8.3048 7.67884 7.80685C7.78368 7.6496 8.07196 7.6234 8.46508 7.78064C9.27753 8.09514 10.2472 7.57098 10.5879 6.62749C10.7976 6.02471 10.7452 5.84125 10.3259 5.52676C9.85411 5.15984 9.80169 5.18605 9.67065 5.73642C9.4872 6.41783 8.41267 6.70612 8.07196 6.15575C7.36435 5.05501 8.15059 3.84944 9.56582 3.84944C11.4266 3.84944 12.7108 6.20816 11.6625 7.59719C11.3218 8.01652 11.3742 8.19997 11.9245 9.01242C12.6846 10.1394 12.737 11.2663 12.0294 11.9739C11.3742 12.6291 10.6666 12.6291 10.09 12.0001C9.38236 11.2139 9.64444 10.5325 10.6666 10.5587C11.5314 10.6111 11.7673 10.2442 11.1907 9.66762C10.719 9.19588 9.53961 9.30071 9.06787 9.82487C8.12438 10.8732 8.64854 12.5767 10.09 13.1795C10.9024 13.5202 11.1121 13.5202 11.8197 13.1533C12.868 12.6553 12.8156 12.6291 12.8156 13.5464C12.8156 14.4113 12.0556 14.9878 11.2169 14.7782C10.9548 14.6996 10.719 14.7258 10.719 14.8306C10.719 15.2499 11.4004 15.643 12.0818 15.643C12.6584 15.643 12.8156 15.7741 12.8156 16.2196C12.8156 16.9272 13.2349 17.6611 13.4708 17.4252C13.5494 17.3466 13.6543 16.901 13.6543 16.4555C13.6805 15.8003 13.7853 15.643 14.2833 15.643C15.0433 15.643 15.6985 15.381 15.6985 15.0927C15.6985 14.9616 15.4102 14.8568 15.0957 14.8568C14.3357 14.8568 13.6019 14.0968 13.6019 13.3367C13.6019 12.6553 13.5494 12.6553 14.7288 13.1533C16.2227 13.7823 17.5593 12.996 17.9262 11.2663C18.0572 10.6111 17.9786 10.3228 17.5593 9.90349C16.9565 9.30071 15.9606 9.19588 15.4888 9.66762C14.9385 10.218 15.1219 10.5849 15.9344 10.4539C16.773 10.349 17.1661 10.9256 16.7468 11.7118C16.3537 12.4195 15.515 12.6029 14.7812 12.1312C13.9163 11.5546 13.8901 9.9297 14.6764 8.85517C15.2005 8.14756 15.2005 8.04272 14.8074 7.49236C14.1522 6.54887 14.2833 5.73642 15.2792 4.74052C16.4323 3.58736 17.8213 3.48253 18.4765 4.50464C18.8435 5.05501 18.8697 5.31709 18.6338 5.81504C18.2407 6.6537 17.0351 6.73232 16.8254 5.94608C16.6682 5.31709 16.3275 5.26468 16.013 5.86746C15.4102 6.91578 16.6944 7.99031 18.1883 7.70202C18.5814 7.6496 18.9483 7.72823 19.0531 7.91168C19.42 8.59309 20.8091 8.48826 21.2284 7.75444C21.4643 7.28269 21.438 7.23028 20.9925 7.36132C20.4946 7.51856 19.6297 6.9682 19.6297 6.47024C19.6297 5.684 19.9966 5.42192 21.0973 5.42192C22.4339 5.42192 23.7706 4.92397 24.3471 4.24256C24.714 3.79703 24.6878 3.79703 24.085 3.98048C21.7787 4.71431 20.3635 4.79293 19.7869 4.21636C19.1579 3.58736 19.289 3.32528 20.2063 3.32528C22.9057 3.32528 25.5003 2.3818 26.3651 1.0714C26.7059 0.521029 26.7059 0.521029 25.4741 1.12381C24.2685 1.70039 21.6477 2.27696 20.1014 2.27696C19.5773 2.27696 19.3938 2.11972 19.3152 1.70039C19.2628 1.35968 19.0269 1.0714 18.7386 1.01898C18.3717 0.940357 18.2931 1.01898 18.3979 1.33348C18.6338 1.93626 17.9786 2.43421 16.6944 2.64388C16.0654 2.74871 15.2792 3.01079 14.9385 3.22045C14.5453 3.48253 14.2308 3.53495 14.0736 3.3777C13.6805 2.98458 13.9426 1.70039 14.5191 1.38589C14.8074 1.22864 15.0957 1.0714 15.1743 1.01898C15.4626 0.835525 14.4405 0.442405 13.6019 0.442405C13.0777 0.442405 12.5273 0.311365 12.3701 0.154117C12.1604 -0.0555474 12.0294 -0.0555474 11.8983 0.180325Z" fill="#D13E2E"/>
<path d="M104.884 17.28H102.22C102.158 17.28 102.128 17.2417 102.128 17.1652L102.174 1.00665C102.174 0.945397 102.204 0.914773 102.266 0.914773H107.02C107.87 0.914773 108.651 1.12149 109.363 1.53493C110.075 1.94837 110.641 2.50344 111.063 3.20016C111.491 3.89688 111.706 4.68548 111.706 5.56594C111.706 6.14016 111.618 6.66079 111.442 7.12782C111.265 7.59485 111.059 7.98915 110.821 8.31071C110.592 8.63227 110.381 8.86962 110.19 9.02274C111.04 9.96446 111.465 11.0708 111.465 12.3417L111.487 17.1652C111.487 17.2417 111.449 17.28 111.373 17.28H108.708C108.647 17.28 108.616 17.257 108.616 17.2111V12.3417C108.616 11.7752 108.417 11.2852 108.019 10.8717C107.621 10.4583 107.131 10.2516 106.549 10.2516H104.999L104.976 17.1652C104.976 17.2417 104.945 17.28 104.884 17.28ZM107.02 3.72844H104.999V7.42641H107.02C107.502 7.42641 107.931 7.24649 108.306 6.88665C108.689 6.5268 108.881 6.08657 108.881 5.56594C108.881 5.06829 108.697 4.63954 108.329 4.27969C107.962 3.91219 107.525 3.72844 107.02 3.72844Z" fill="white"/>
<path d="M91.298 17.1652L94.215 1.00665C94.2303 0.945397 94.2686 0.914773 94.3298 0.914773H97.7407C97.8019 0.914773 97.8402 0.945397 97.8555 1.00665L100.658 17.1652C100.665 17.2417 100.635 17.28 100.566 17.28H97.9589C97.8823 17.28 97.8402 17.2417 97.8326 17.1652L97.5799 15.4425H94.3758L94.1231 17.1652C94.1155 17.2417 94.0772 17.28 94.0083 17.28H91.3898C91.3286 17.28 91.298 17.2417 91.298 17.1652ZM95.9032 6.32391L94.8466 12.9274H97.1091L96.1444 6.32391L96.0066 5.4511L95.9032 6.32391Z" fill="white"/>
<path d="M90.4366 17.28H82.834C82.7727 17.28 82.7421 17.2417 82.7421 17.1652L82.7651 1.02962C82.7651 0.953054 82.8034 0.914773 82.8799 0.914773H85.4984C85.5749 0.914773 85.6132 0.953054 85.6132 1.02962L85.5902 14.3859H90.4366C90.5132 14.3859 90.5515 14.4242 90.5515 14.5008V17.1652C90.5515 17.2417 90.5132 17.28 90.4366 17.28Z" fill="white"/>
<path d="M71.9123 17.1652L74.8294 1.00665C74.8447 0.945397 74.883 0.914773 74.9442 0.914773H78.3551C78.4163 0.914773 78.4546 0.945397 78.4699 1.00665L81.2721 17.1652C81.2798 17.2417 81.2491 17.28 81.1802 17.28H78.5733C78.4967 17.28 78.4546 17.2417 78.4469 17.1652L78.1943 15.4425H74.9902L74.7375 17.1652C74.7298 17.2417 74.6916 17.28 74.6227 17.28H72.0042C71.943 17.28 71.9123 17.2417 71.9123 17.1652ZM76.5176 6.32391L75.461 12.9274H77.7234L76.7587 6.32391L76.6209 5.4511L76.5176 6.32391Z" fill="white"/>
<path d="M65.9405 17.257L61.7257 17.28C61.6491 17.28 61.6109 17.2417 61.6109 17.1652L61.6568 1.00664C61.6568 0.945392 61.6874 0.914767 61.7487 0.914767L66.1472 0.891799C67.02 0.86883 67.8086 1.06789 68.513 1.48899C69.225 1.91008 69.7916 2.48047 70.2127 3.20016C70.6414 3.91219 70.8558 4.70078 70.8558 5.56594V12.3188C70.8558 13.2222 70.6376 14.0491 70.2012 14.7994C69.7571 15.542 69.1676 16.1354 68.4326 16.5795C67.6976 17.0159 66.8669 17.2417 65.9405 17.257ZM66.1472 3.70547L64.5049 3.72844L64.4819 14.3859H65.9405C66.5223 14.3859 67.0123 14.183 67.4105 13.7773C67.8086 13.3715 68.0077 12.8853 68.0077 12.3188V5.54297C68.0077 5.04531 67.8239 4.61274 67.4564 4.24524C67.0889 3.87008 66.6525 3.69016 66.1472 3.70547Z" fill="white"/>
<path d="M53.2617 17.28H50.9074C50.7849 17.28 50.7237 17.2264 50.7237 17.1192L50.7007 1.09852C50.7007 0.976023 50.762 0.914773 50.8845 0.914773H53.0091L56.9827 10.1827L56.8678 1.09852C56.8678 0.976023 56.9367 0.914773 57.0745 0.914773H59.4059C59.4977 0.914773 59.5437 0.976023 59.5437 1.09852L59.5666 17.1422C59.5666 17.2341 59.5284 17.28 59.4518 17.28H57.3846L53.3077 8.62079L53.4799 17.0963C53.4799 17.2188 53.4072 17.28 53.2617 17.28Z" fill="white"/>
<path d="M48.5187 17.28H40.916C40.8548 17.28 40.8241 17.2417 40.8241 17.1652L40.8471 1.00665C40.8471 0.945397 40.8777 0.914773 40.939 0.914773H48.4957C48.5569 0.914773 48.5876 0.953054 48.5876 1.02962V3.65954C48.5876 3.72079 48.5569 3.75141 48.4957 3.75141H43.6723V7.42641H48.4957C48.5569 7.42641 48.5876 7.45704 48.5876 7.51829L48.6105 10.1827C48.6105 10.2439 48.5799 10.2745 48.5187 10.2745H43.6723V14.3859H48.5187C48.5799 14.3859 48.6105 14.4242 48.6105 14.5008V17.1881C48.6105 17.2494 48.5799 17.28 48.5187 17.28Z" fill="white"/>
<path d="M34.0598 17.257L29.8451 17.28C29.7685 17.28 29.7302 17.2417 29.7302 17.1652L29.7762 1.00664C29.7762 0.945392 29.8068 0.914767 29.868 0.914767L34.2666 0.891799C35.1394 0.86883 35.928 1.06789 36.6323 1.48899C37.3444 1.91008 37.9109 2.48047 38.332 3.20016C38.7608 3.91219 38.9752 4.70078 38.9752 5.56594V12.3188C38.9752 13.2222 38.757 14.0491 38.3205 14.7994C37.8765 15.542 37.2869 16.1354 36.552 16.5795C35.817 17.0159 34.9862 17.2417 34.0598 17.257ZM34.2666 3.70547L32.6243 3.72844L32.6013 14.3859H34.0598C34.6417 14.3859 35.1317 14.183 35.5298 13.7773C35.928 13.3715 36.127 12.8853 36.127 12.3188V5.54297C36.127 5.04531 35.9433 4.61274 35.5758 4.24524C35.2083 3.87008 34.7719 3.69016 34.2666 3.70547Z" fill="white"/>
</svg>
