<svg width="289" height="295" viewBox="0 0 289 295" fill="none" xmlns="http://www.w3.org/2000/svg">
<path d="M48.8059 -12.8626C48.447 -12.8626 48.0968 -13.0376 47.8867 -13.3526C47.5891 -13.8076 47.6679 -14.4201 48.0793 -14.7789L69.6142 -33.5308C69.7718 -33.6708 69.9644 -33.7583 70.1745 -33.7846L95.8763 -37.4859C96.4103 -37.5647 96.9268 -37.2409 97.0843 -36.7159C97.2419 -36.1996 96.9968 -35.6396 96.5066 -35.4121L49.2699 -12.9676C49.1211 -12.8976 48.9635 -12.8626 48.8059 -12.8626ZM70.8135 -31.667L55.5377 -18.3665L89.0481 -34.2921L70.8135 -31.667Z" fill="white" fill-opacity="0.02"/>
<path d="M70.3408 -31.6057C69.8769 -31.6057 69.4567 -31.8945 69.3079 -32.3408C69.1328 -32.8395 69.3429 -33.382 69.7981 -33.6446L123.732 -64.4981C124.213 -64.7694 124.817 -64.6469 125.15 -64.2094C125.482 -63.7718 125.43 -63.1506 125.036 -62.7656C114.461 -52.4927 108.596 -46.8225 96.7954 -35.6046C96.6291 -35.4471 96.419 -35.3509 96.2002 -35.3159L70.4984 -31.6145C70.4459 -31.6145 70.3933 -31.6057 70.3408 -31.6057ZM117.289 -58.2942L75.8646 -34.5983L95.5436 -37.4334C104.665 -46.105 110.233 -51.4602 117.289 -58.2942Z" fill="white" fill-opacity="0.02"/>
<path d="M70.8485 1.55791C70.6297 1.55791 70.4196 1.49666 70.2358 1.3654C68.0123 -0.148399 65.7887 -1.6972 63.6178 -3.21101C57.6037 -7.4024 51.9311 -11.3663 48.3507 -12.9676C47.9656 -13.1426 47.7117 -13.5276 47.703 -13.9564C47.6942 -14.3851 47.9393 -14.7702 48.3245 -14.9539L95.5612 -37.3984C96.0076 -37.6084 96.5416 -37.4947 96.8655 -37.1184C97.1894 -36.7422 97.2157 -36.1996 96.9355 -35.7884L93.005 -30.0657C85.4153 -19.0141 80.3992 -11.7163 71.7502 1.07664C71.5839 1.3129 71.3388 1.47916 71.0499 1.54041C70.9886 1.55791 70.9186 1.55791 70.8485 1.55791ZM51.2921 -13.9214C54.9425 -11.9176 59.7922 -8.53994 64.8696 -4.99607C66.7342 -3.69228 68.6426 -2.36223 70.5597 -1.05843C78.8497 -13.3001 83.8045 -20.5104 91.2104 -31.2995L92.8387 -33.6621L51.2921 -13.9214Z" fill="white" fill-opacity="0.02"/>
<path d="M70.8485 1.55791C70.6122 1.55791 70.3846 1.48791 70.1833 1.3304C69.7193 0.980385 69.6142 0.324112 69.9381 -0.148399C78.5958 -12.9501 83.6119 -20.2478 91.2016 -31.2995L95.1322 -37.0134C95.176 -37.0747 95.2285 -37.1359 95.281 -37.1884C107.073 -48.3976 112.938 -54.0678 123.504 -64.3319C123.915 -64.7344 124.572 -64.7431 125.001 -64.3581C125.43 -63.9731 125.482 -63.3168 125.115 -62.8618C105.418 -38.2997 94.4931 -25.3318 71.6714 1.19039C71.4701 1.4354 71.1637 1.55791 70.8485 1.55791ZM96.883 -35.6834L93.0225 -30.0569C89.2057 -24.4917 86.0367 -19.8803 82.7277 -15.0327C93.8016 -27.9919 102.214 -38.046 112.194 -50.3139C107.685 -45.9912 103.116 -41.6073 96.883 -35.6834Z" fill="white" fill-opacity="0.02"/>
<path d="M70.8573 1.55791C70.5684 1.55791 70.2795 1.44415 70.0607 1.21664C69.6755 0.805382 69.658 0.175354 70.0257 -0.25341C92.8299 -26.7493 103.737 -39.7085 123.416 -64.2444C123.697 -64.5856 124.152 -64.7344 124.572 -64.6119C125.001 -64.4894 125.307 -64.1219 125.351 -63.6843C126.165 -56.3341 126.848 -52.3702 128.844 -43.5237C128.94 -43.1036 128.783 -42.6661 128.432 -42.4124C112.833 -30.6257 102.547 -22.6717 89.5296 -12.6001C84.1459 -8.43494 78.3244 -3.92854 71.5138 1.32165C71.3212 1.48791 71.0849 1.55791 70.8573 1.55791ZM123.486 -60.823C106.871 -40.146 96.384 -27.5894 78.6659 -6.93864C82.0449 -9.54623 85.1964 -11.9876 88.2077 -14.3151C101.076 -24.2642 111.266 -32.157 126.568 -43.7162C124.905 -51.1189 124.178 -55.0915 123.486 -60.823Z" fill="white" fill-opacity="0.02"/>
<path d="M127.785 -42.1761C127.662 -42.1761 127.531 -42.1936 127.408 -42.2461C127.058 -42.3774 126.795 -42.6661 126.717 -43.0336C124.703 -51.9764 124.012 -55.9841 123.18 -63.4306C123.128 -63.9294 123.416 -64.4019 123.889 -64.5769C141.572 -71.1221 151.027 -73.3359 169.839 -75.331C170.347 -75.3835 170.802 -75.0947 170.977 -74.6222C171.152 -74.1497 170.986 -73.6247 170.574 -73.3447C154.966 -62.5293 146.623 -56.2641 128.441 -42.4036C128.257 -42.2549 128.021 -42.1761 127.785 -42.1761ZM125.456 -62.8181C126.174 -56.4566 126.839 -52.5627 128.485 -45.1687C144.374 -57.2791 152.69 -63.5181 165.795 -72.6709C150.195 -70.8421 141.047 -68.5583 125.456 -62.8181Z" fill="white" fill-opacity="0.02"/>
<path d="M70.8573 1.55791C70.4721 1.55791 70.0957 1.3479 69.9031 0.997887C69.6405 0.525368 69.763 -0.0696487 70.192 -0.402161C77.0026 -5.65234 82.824 -10.15 88.2077 -14.3151C101.234 -24.3867 111.52 -32.3495 127.128 -44.1449C127.443 -44.3812 127.855 -44.4337 128.214 -44.2762C128.573 -44.1187 128.826 -43.7862 128.87 -43.4011C130.017 -33.7233 130.849 -28.5869 133.098 -17.264C133.212 -16.6777 132.836 -16.1002 132.24 -15.9777C107.432 -10.92 94.8871 -7.33241 71.2337 1.49665C71.1112 1.54041 70.9798 1.55791 70.8573 1.55791ZM126.927 -41.2486C112.168 -30.0832 102.135 -22.3217 89.5472 -12.5826C85.7129 -9.61623 81.651 -6.47487 77.1777 -3.0185C96.5504 -10.0362 108.929 -13.4314 130.752 -17.9028C128.783 -27.8256 127.934 -32.9708 126.927 -41.2486Z" fill="white" fill-opacity="0.02"/>
<path d="M132.03 -15.9602C131.96 -15.9602 131.882 -15.9689 131.812 -15.9864C131.383 -16.074 131.041 -16.4152 130.954 -16.844C128.695 -28.2369 127.855 -33.3996 126.699 -43.1474C126.655 -43.5324 126.813 -43.9087 127.119 -44.1449C145.328 -58.0317 153.688 -64.2969 169.331 -75.1472C169.76 -75.4448 170.338 -75.401 170.714 -75.0335C171.091 -74.6747 171.161 -74.0972 170.881 -73.6597C157.294 -52.309 149.285 -40.426 132.932 -16.4415C132.722 -16.1352 132.381 -15.9602 132.03 -15.9602ZM128.94 -42.7799C129.964 -34.2396 130.761 -29.1994 132.591 -19.8278C146.772 -40.6273 154.616 -52.2827 166.084 -70.2121C153.329 -61.2868 144.978 -55.004 128.94 -42.7799Z" fill="white" fill-opacity="0.02"/>
<path d="M132.03 -15.9602C131.724 -15.9602 131.418 -16.0915 131.208 -16.3365C130.875 -16.7127 130.849 -17.264 131.129 -17.6753C147.464 -41.6336 155.465 -53.5165 169.042 -74.8322C169.366 -75.3397 170.032 -75.4885 170.548 -75.1735C183.443 -67.1145 191.549 -61.8118 208.357 -49.8151C208.698 -49.5789 208.864 -49.1676 208.803 -48.7563C208.742 -48.3451 208.453 -48.0126 208.059 -47.8813C179.503 -38.7722 163.449 -31.632 132.529 -16.0827C132.363 -15.9952 132.197 -15.9602 132.03 -15.9602ZM170.294 -72.7409C157.723 -53.009 149.862 -41.2923 135.304 -19.9241C161.995 -33.277 178.672 -40.6973 205.302 -49.2988C190.113 -60.0967 182.173 -65.3032 170.294 -72.7409Z" fill="white" fill-opacity="0.02"/>
<path d="M207.709 -47.8288C207.481 -47.8288 207.262 -47.8988 207.07 -48.0301C190.306 -59.9917 182.226 -65.2769 169.366 -73.3097C168.972 -73.5547 168.771 -74.0272 168.876 -74.4822C168.981 -74.9372 169.366 -75.2785 169.83 -75.3222C189.877 -77.4486 200.793 -77.1598 220.63 -73.9747C220.971 -73.9222 221.269 -73.7034 221.426 -73.3972C221.584 -73.0909 221.593 -72.7234 221.435 -72.4084C217.119 -63.6493 214.616 -58.9329 208.654 -48.3713C208.505 -48.1001 208.243 -47.9076 207.936 -47.8375C207.875 -47.8375 207.788 -47.8288 207.709 -47.8288ZM173.236 -73.4759C184.388 -66.4669 192.389 -61.1818 207.35 -50.5151C212.567 -59.773 215.053 -64.4544 218.818 -72.0584C201.187 -74.8147 190.621 -75.1647 173.236 -73.4759Z" fill="white" fill-opacity="0.02"/>
<path d="M34.9658 35.4566C34.7645 35.4566 34.5719 35.4041 34.3968 35.2903C33.9766 35.0366 33.784 34.529 33.9154 34.0565L47.7555 -14.2626C47.843 -14.5689 48.0618 -14.8227 48.342 -14.9539C48.6308 -15.0852 48.9635 -15.0939 49.2524 -14.9627C53.0078 -13.2739 58.7768 -9.25746 64.8696 -5.00481C67.0318 -3.49976 69.2465 -1.95096 71.4613 -0.445908C71.7327 -0.262154 71.9078 0.0353546 71.9341 0.367867C71.9603 0.700378 71.8378 1.02414 71.6014 1.25165C57.2798 15.0509 49.9002 22.0249 35.7012 35.1678C35.4998 35.3603 35.2372 35.4566 34.9658 35.4566ZM49.4975 -12.3988L37.093 30.9064C49.1648 19.7148 56.4219 12.8545 69.1152 0.62162C67.2681 -0.647171 65.4211 -1.93346 63.609 -3.1935C58.2165 -6.97363 53.0779 -10.5525 49.4975 -12.3988Z" fill="white" fill-opacity="0.02"/>
<path d="M34.9658 35.4566C34.922 35.4566 34.8783 35.4566 34.8345 35.4478C34.3005 35.3778 33.889 34.9316 33.8715 34.3978L32.9787 6.70309C32.9699 6.46683 33.0399 6.23057 33.18 6.02931L47.9042 -14.5952C48.2106 -15.0327 48.7884 -15.1814 49.2699 -14.9452C49.7513 -14.7177 49.9964 -14.1664 49.8476 -13.6589L36.0075 34.6603C35.885 35.1416 35.4473 35.4566 34.9658 35.4566ZM35.1846 7.0006L35.8412 27.3538L46.0134 -8.14618L35.1846 7.0006Z" fill="white" fill-opacity="0.02"/>
<path d="M61.6393 56.4398C61.3942 56.4398 61.1491 56.3523 60.9477 56.1948C48.4382 45.9482 42.967 41.643 34.318 35.2466C34.0554 35.0541 33.8978 34.7566 33.8803 34.424C33.8628 34.0915 33.9941 33.7853 34.2305 33.5578C48.4208 20.4236 55.7916 13.4583 70.0957 -0.323402C70.4458 -0.664665 70.9886 -0.725922 71.4088 -0.480911C71.829 -0.22715 72.0391 0.271614 71.9078 0.744133C66.4803 21.0536 64.5982 32.2977 62.7336 55.4248C62.6986 55.8273 62.4447 56.1861 62.0683 56.3436C61.9282 56.4048 61.7881 56.4398 61.6393 56.4398ZM36.6816 34.2753C44.3939 39.998 49.7951 44.2506 60.7202 53.1759C62.4272 32.7002 64.2393 21.5349 68.8001 3.96424C56.5707 15.7246 49.3137 22.5674 36.6816 34.2753Z" fill="white" fill-opacity="0.02"/>
<path d="M61.6393 56.4398C61.4818 56.4398 61.3329 56.4048 61.1841 56.3436C60.7639 56.151 60.5101 55.7223 60.5451 55.2585C62.4272 31.974 64.3268 20.6511 69.7893 0.184097C69.8769 -0.157166 70.1307 -0.437172 70.4634 -0.559677C94.2481 -9.43248 106.863 -13.0463 131.803 -18.1215C132.267 -18.2178 132.748 -17.999 132.976 -17.579C133.203 -17.159 133.142 -16.6427 132.809 -16.2927C104.718 13.0646 89.0482 29.0951 62.4097 56.116C62.2083 56.326 61.9282 56.4398 61.6393 56.4398ZM71.7677 1.29539C66.6904 20.371 64.7557 31.4839 62.9787 52.4234C87.5775 27.4675 102.958 11.717 128.809 -15.2777C106.407 -10.6138 93.9767 -6.97364 71.7677 1.29539Z" fill="white" fill-opacity="0.02"/>
<path d="M7.92468 63.4488C7.53075 63.4488 7.1543 63.23 6.96171 62.8713C6.7341 62.4513 6.81291 61.935 7.14556 61.5937C17.6504 50.7871 23.1829 45.0907 34.1867 33.6103C34.5719 33.2165 35.1847 33.164 35.6311 33.4878C44.3151 39.9017 49.8039 44.2244 62.3484 54.4972C62.6898 54.7773 62.8298 55.241 62.6985 55.6698C62.5672 56.0985 62.1908 56.3961 61.7444 56.4398C38.7126 58.3911 27.6912 59.8349 8.13477 63.44C8.05598 63.44 7.99471 63.4488 7.92468 63.4488ZM35.0884 35.8153C25.3714 45.9569 19.9177 51.5834 11.0936 60.6574C27.9626 57.6123 38.8439 56.2123 58.8643 54.4797C48.1494 45.7294 42.8182 41.5468 35.0884 35.8153Z" fill="white" fill-opacity="0.02"/>
<path d="M132.03 -15.9602C131.558 -15.9602 131.137 -16.2665 130.989 -16.7215C130.831 -17.229 131.059 -17.789 131.54 -18.0253C161.19 -32.9358 178.278 -40.6711 207.385 -49.9551C207.674 -50.0426 207.98 -50.0164 208.252 -49.8676C208.514 -49.7189 208.707 -49.4739 208.777 -49.1763C211.429 -38.746 212.909 -33.0233 215.587 -22.6629L216.183 -20.3791C216.27 -20.0378 216.192 -19.6791 215.964 -19.4078C215.736 -19.1366 215.404 -18.9878 215.045 -19.0141C182.051 -21.2979 164.245 -20.6416 132.188 -15.9602C132.135 -15.9602 132.083 -15.9602 132.03 -15.9602ZM206.939 -47.5225C180.948 -39.1835 165.252 -32.3933 138.508 -19.0753C166.25 -22.8554 183.784 -23.328 213.679 -21.3154L213.469 -22.1292C210.887 -32.1133 209.416 -37.7922 206.939 -47.5225Z" fill="white" fill-opacity="0.02"/>
<path d="M61.6393 56.4398C61.3329 56.4398 61.0353 56.3173 60.8164 56.0723C60.44 55.6435 60.4575 54.9872 60.8602 54.5847C87.4899 27.5725 103.151 11.5508 131.234 -17.7978C131.584 -18.1653 132.135 -18.244 132.573 -17.9815C133.011 -17.7278 133.212 -17.2027 133.063 -16.7215C130.28 -7.56866 128.879 -2.85225 126.043 7.03559C125.981 7.2631 125.841 7.45561 125.657 7.60436C116.151 14.8934 108.368 20.8961 101.024 26.5488C88.5842 36.1304 77.8518 44.4081 62.2959 56.2298C62.1033 56.3611 61.8757 56.4398 61.6393 56.4398ZM129.649 -12.9851C107.388 10.2557 92.8649 25.175 73.2209 45.1432C82.7628 37.8454 90.7902 31.659 99.693 24.8075C106.959 19.2073 114.671 13.2658 124.047 6.07307C126.34 -1.91596 127.697 -6.51862 129.649 -12.9851Z" fill="white" fill-opacity="0.02"/>
<path d="M125.001 7.81436C124.73 7.81436 124.467 7.71812 124.257 7.52561C123.95 7.2456 123.828 6.81683 123.95 6.42307C126.787 -3.48227 128.196 -8.19868 130.98 -17.369C131.102 -17.7715 131.453 -18.069 131.873 -18.1303C164.114 -22.8379 182.016 -23.4942 215.194 -21.2016C215.736 -21.1666 216.174 -20.7291 216.209 -20.1778C216.244 -19.6266 215.868 -19.1453 215.334 -19.0316C179.854 -11.8301 159.754 -5.24109 125.386 7.75311C125.264 7.78812 125.132 7.81436 125.001 7.81436ZM132.871 -16.0739C130.42 -8.00617 129.036 -3.35976 126.655 4.92677C157.312 -6.63237 176.763 -13.0551 206.991 -19.5391C179.162 -21.1579 161.812 -20.2653 132.871 -16.0739Z" fill="white" fill-opacity="0.02"/>
<path d="M207.709 -47.8288C207.402 -47.8288 207.105 -47.9601 206.895 -48.1876C206.58 -48.5376 206.527 -49.0451 206.755 -49.4564C212.69 -59.983 215.185 -64.6731 219.483 -73.3884C219.693 -73.8172 220.166 -74.0622 220.639 -73.9835C234.452 -71.7696 241.429 -69.9758 254.578 -65.2682C255.042 -65.1019 255.339 -64.6381 255.296 -64.1481C255.252 -63.6581 254.884 -63.2468 254.394 -63.1593C238.733 -60.403 229.112 -56.9379 208.147 -47.9076C208.007 -47.855 207.858 -47.8288 207.709 -47.8288ZM221.094 -71.6996C217.391 -64.2006 214.966 -59.598 210.256 -51.1977C227.624 -58.6092 237.079 -62.013 250 -64.5681C239.495 -68.1908 232.973 -69.7658 221.094 -71.6996Z" fill="white" fill-opacity="0.02"/>
<path d="M287.3 -36.3134C287.257 -36.3134 287.213 -36.3134 287.169 -36.3222L255.97 -40.0673C255.436 -40.1285 255.033 -40.5748 255.007 -41.1086C254.604 -50.9352 254.236 -55.4503 253.125 -64.0956C253.072 -64.5331 253.282 -64.9706 253.676 -65.1894C254.061 -65.4082 254.543 -65.3732 254.893 -65.0931C268.033 -54.6278 275.124 -48.8088 288.001 -38.2472C288.377 -37.941 288.5 -37.4159 288.316 -36.9697C288.132 -36.5759 287.729 -36.3134 287.3 -36.3134ZM257.152 -42.1324L283.703 -38.9385C273.259 -47.505 266.475 -53.0527 255.628 -61.7068C256.46 -54.8728 256.81 -50.3751 257.152 -42.1324Z" fill="white" fill-opacity="0.02"/>
<path d="M256.101 -40.0585C256.014 -40.0585 255.917 -40.0673 255.83 -40.0935C237.087 -44.8974 227.178 -46.49 207.639 -47.8288C207.131 -47.8638 206.72 -48.2401 206.632 -48.7388C206.545 -49.2376 206.816 -49.7276 207.28 -49.9289C228.421 -59.0292 238.138 -62.5293 254.018 -65.3207C254.315 -65.3732 254.613 -65.3032 254.858 -65.1281C255.103 -64.9531 255.261 -64.6819 255.296 -64.3844C256.416 -55.6516 256.793 -51.1102 257.195 -41.2048C257.213 -40.8548 257.055 -40.531 256.793 -40.3123C256.591 -40.146 256.346 -40.0585 256.101 -40.0585ZM212.278 -49.6839C228.648 -48.4238 238.418 -46.77 254.946 -42.5786C254.587 -50.9964 254.21 -55.4591 253.265 -62.9581C239.311 -60.4292 229.979 -57.2091 212.278 -49.6839Z" fill="white" fill-opacity="0.02"/>
<path d="M215.115 -19.0228C214.966 -19.0228 214.826 -19.0491 214.686 -19.1103C214.371 -19.2416 214.143 -19.5128 214.056 -19.8453L213.469 -22.1292C210.79 -32.4895 209.311 -38.221 206.658 -48.6513C206.571 -48.9926 206.65 -49.3514 206.877 -49.6226C207.105 -49.8939 207.437 -50.0339 207.796 -50.0164C227.493 -48.6688 237.481 -47.0675 256.381 -42.2199C256.836 -42.1061 257.16 -41.7123 257.204 -41.2486C257.239 -40.7848 256.976 -40.3473 256.556 -40.1548C242.471 -33.9858 233.997 -29.5057 215.666 -19.1628C215.491 -19.0666 215.299 -19.0228 215.115 -19.0228ZM209.145 -47.7238C211.569 -38.2035 213.031 -32.542 215.579 -22.6717L215.815 -21.7616C232.098 -30.9407 240.554 -35.4209 252.757 -40.8636C236.405 -44.9587 226.635 -46.4813 209.145 -47.7238Z" fill="white" fill-opacity="0.02"/>
<path d="M302.83 20.7561C302.611 20.7561 302.401 20.6948 302.209 20.5636L297.56 17.3697C289.594 11.9008 284.28 8.25189 275.124 2.01292C274.957 1.89917 274.826 1.74167 274.738 1.55791C266.746 -16.1352 262.728 -24.6405 255.112 -40.6885C254.876 -41.1961 255.051 -41.7998 255.532 -42.0974C256.014 -42.3861 256.635 -42.2636 256.977 -41.8173C273.662 -19.6178 283.589 -6.85114 300.038 14.2896L303.688 18.9798C304.021 19.4085 303.994 20.0123 303.618 20.3973C303.408 20.6336 303.119 20.7561 302.83 20.7561ZM276.612 0.376617C285.173 6.21307 290.364 9.77444 297.639 14.7709C283.799 -3.02725 274.537 -14.9364 261.695 -31.9207C266.65 -21.4379 270.449 -13.2651 276.612 0.376617Z" fill="white" fill-opacity="0.02"/>
<path d="M275.736 2.20543C275.596 2.20543 275.456 2.17918 275.325 2.12668C251.155 -7.64742 239.022 -12.0838 214.808 -19.0578C214.388 -19.1803 214.073 -19.5478 214.021 -19.9853C213.968 -20.4229 214.187 -20.8516 214.572 -21.0616C232.973 -31.4482 241.482 -35.9459 255.655 -42.1499C256.197 -42.3861 256.828 -42.1499 257.082 -41.6161C264.706 -25.5505 268.733 -17.0452 276.726 0.665375C276.909 1.07664 276.831 1.54916 276.515 1.87292C276.314 2.08292 276.034 2.20543 275.736 2.20543ZM217.925 -20.4404C239.757 -14.0876 251.847 -9.70374 273.618 -0.927177C266.51 -16.634 262.535 -25.043 255.567 -39.726C242.637 -34.0383 234.295 -29.6632 217.925 -20.4404Z" fill="white" fill-opacity="0.02"/>
<path d="M159.299 37.6967C159.045 37.6967 158.783 37.6091 158.581 37.4254L158.135 37.0316C143.813 24.4924 136.626 18.201 124.292 7.54311C124.003 7.28934 123.863 6.90434 123.933 6.52807C124.003 6.15181 124.266 5.8368 124.625 5.69679C159.107 -7.34116 179.276 -13.9564 214.905 -21.1929C215.377 -21.2891 215.85 -21.0616 216.086 -20.6416C216.314 -20.2216 216.244 -19.6966 215.911 -19.3553C206.063 -9.24872 198.071 -1.16344 189.597 7.39436C180.957 16.1184 172.027 25.14 160.096 37.3641C159.868 37.5829 159.579 37.6967 159.299 37.6967ZM127.111 7.09684C138.526 16.9672 145.687 23.2324 159.238 35.0978C170.819 23.2412 179.565 14.4033 188.03 5.8543C195.768 -1.96847 203.122 -9.38873 211.85 -18.3315C179.074 -11.5238 159.308 -5.04858 127.111 7.09684Z" fill="white" fill-opacity="0.02"/>
<path d="M249.177 44.4431C249.159 44.4431 249.142 44.4431 249.124 44.4431C248.739 44.4256 248.389 44.2069 248.214 43.8656C242.06 32.3502 237.271 23.4774 232.632 14.8846C226.836 4.14799 221.356 -6.00235 214.143 -19.6003C213.942 -19.9853 213.985 -20.4579 214.257 -20.7991C214.537 -21.1404 214.983 -21.2804 215.412 -21.1579C239.722 -14.1576 251.89 -9.70374 276.148 0.105354C276.445 0.227859 276.673 0.464119 276.769 0.761627C276.874 1.05914 276.839 1.39165 276.682 1.66291C267.998 16.5472 262.43 25.28 250.087 43.9531C249.886 44.2594 249.544 44.4431 249.177 44.4431ZM217.295 -18.349C223.921 -5.87984 229.095 3.71923 234.566 13.8433C238.978 22.0249 243.539 30.4689 249.282 41.2143C260.601 24.0724 266.098 15.4359 274.161 1.64541C251.584 -7.46365 239.503 -11.8826 217.295 -18.349Z" fill="white" fill-opacity="0.02"/>
<path d="M185.623 73.7742C185.281 73.7742 184.948 73.6079 184.738 73.3279C173.761 58.4436 168.307 51.0146 158.406 37.2416C158.1 36.8129 158.144 36.2178 158.511 35.8416C170.452 23.6087 179.39 14.5871 188.021 5.85431C196.486 -2.69474 204.487 -10.78 214.327 -20.8779C214.677 -21.2366 215.22 -21.3154 215.658 -21.0616C216.095 -20.8166 216.297 -20.3003 216.165 -19.8191C207.849 10.0369 201.59 28.6488 191.216 59.4762C189.781 63.7376 188.266 68.2352 186.664 73.0304C186.533 73.4154 186.2 73.7041 185.798 73.7654C185.736 73.7654 185.675 73.7742 185.623 73.7742ZM160.726 36.7079C169.9 49.4746 175.301 56.8336 185.255 70.3353C186.62 66.2839 187.907 62.4425 189.142 58.7761C199.016 29.4276 205.161 11.1657 212.9 -16.284C204.391 -7.56866 197.178 -0.279655 189.579 7.39436C181.105 15.9609 172.343 24.8162 160.726 36.7079Z" fill="white" fill-opacity="0.02"/>
<path d="M185.623 73.7742C185.36 73.7742 185.106 73.6779 184.896 73.5029C184.563 73.2141 184.441 72.7504 184.581 72.3391C186.192 67.5439 187.706 63.0463 189.133 58.7849C199.498 27.9838 205.748 9.39818 214.056 -20.4054C214.178 -20.8341 214.546 -21.1491 214.992 -21.2016C215.439 -21.2541 215.868 -21.0179 216.078 -20.6241C223.291 -7.02614 228.762 3.11546 234.557 13.8521C239.197 22.4449 243.986 31.3264 250.14 42.8418C250.28 43.1131 250.306 43.4281 250.21 43.7169C250.113 44.0056 249.894 44.2419 249.614 44.3644C226.285 54.506 213.662 60.4562 186.095 73.6779C185.946 73.7392 185.78 73.7742 185.623 73.7742ZM215.43 -17.1852C207.473 11.1482 201.275 29.5589 191.216 59.4762C190.026 63.0025 188.791 66.6864 187.487 70.5715C213.066 58.3124 225.637 52.3972 247.653 42.8156C241.771 31.8077 237.131 23.2062 232.632 14.8846C227.187 4.78677 222.022 -4.77731 215.43 -17.1852Z" fill="white" fill-opacity="0.02"/>
<path d="M249.177 44.4431C248.87 44.4431 248.564 44.3119 248.354 44.0756C248.03 43.7081 247.986 43.1656 248.266 42.7456C260.583 24.1074 266.142 15.4009 274.791 0.560371C274.94 0.297859 275.202 0.114105 275.491 0.0441055C275.789 -0.0258942 276.095 0.0353546 276.349 0.210365C285.515 6.45808 290.82 10.0982 298.794 15.5759L303.443 18.7698C303.784 18.9973 303.959 19.3998 303.907 19.811C303.854 20.2135 303.583 20.5636 303.198 20.7036C284.674 27.5288 273.583 32.5865 249.649 44.3469C249.509 44.4081 249.343 44.4431 249.177 44.4431ZM276.095 2.6692C268.278 16.0484 262.877 24.5712 252.311 40.593C273.058 30.4427 283.956 25.5162 300.475 19.3648L297.569 17.3697C289.874 12.0933 284.665 8.5144 276.095 2.6692Z" fill="white" fill-opacity="0.02"/>
<path d="M61.6393 56.4398C61.2279 56.4398 60.834 56.2035 60.6501 55.8185C60.4313 55.3548 60.5626 54.7947 60.974 54.4797C76.5211 42.6581 87.2623 34.389 99.693 24.8075C107.038 19.146 114.829 13.1433 124.336 5.85431C124.747 5.53929 125.325 5.5568 125.719 5.89806C138.062 16.5559 145.249 22.8561 159.571 35.3953L160.017 35.7891C160.341 36.0691 160.463 36.5154 160.341 36.9266C160.218 37.3379 159.868 37.6354 159.448 37.6967C119.468 43.3231 100.026 47.3045 61.8932 56.4136C61.8056 56.4311 61.7269 56.4398 61.6393 56.4398ZM124.957 8.12938C115.774 15.1734 108.184 21.0186 101.032 26.5313C89.7222 35.2466 79.8214 42.8768 66.419 53.0797C100.656 44.9594 120.055 41.0655 156.778 35.8591C143.603 24.3174 136.504 18.1047 124.957 8.12938Z" fill="white" fill-opacity="0.02"/>
<path d="M1.10528 104.444C0.912689 104.444 0.720088 104.391 0.545008 104.286C0.159831 104.059 -0.0414817 103.613 0.0285504 103.166L6.84791 62.1712C6.9267 61.7162 7.27687 61.3575 7.73208 61.2787C27.3761 57.6561 38.4412 56.2123 61.5518 54.2522C62.0245 54.2085 62.4797 54.4885 62.6548 54.9348C62.8299 55.381 62.6986 55.8885 62.3309 56.1948C35.5523 77.948 23.1041 87.8184 1.77059 104.216C1.578 104.365 1.34164 104.444 1.10528 104.444ZM8.87885 63.2913L2.63723 100.786C21.9048 85.9546 34.2042 76.198 58.1815 56.7373C37.8021 58.5224 26.9471 59.9749 8.87885 63.2913Z" fill="white" fill-opacity="0.02"/>
<path d="M116.562 93.7161C116.343 93.7161 116.124 93.6548 115.932 93.5148C90.8252 75.7079 79.9878 68.2527 61.0528 56.2648C60.6852 56.0285 60.4838 55.591 60.5625 55.1623C60.6413 54.7335 60.9565 54.3835 61.3854 54.2785C99.5967 45.1432 119.074 41.153 159.142 35.5178C159.579 35.4566 160.017 35.6666 160.236 36.0516C160.463 36.4366 160.428 36.9179 160.157 37.2679L157.006 41.3455C142.106 60.6487 133.116 72.2953 117.429 93.2698C117.227 93.5673 116.895 93.7161 116.562 93.7161ZM64.4143 55.8098C82.8678 67.5439 94.3443 75.5242 116.326 91.1172C131.628 70.6678 140.583 59.0649 155.281 40.0155L156.787 38.0642C119.46 43.3669 100.069 47.3132 64.4143 55.8098Z" fill="white" fill-opacity="0.02"/>
<path d="M116.562 93.7161C116.212 93.7161 115.87 93.5498 115.669 93.2523C115.398 92.8673 115.407 92.351 115.687 91.9748C131.374 70.9828 140.373 59.3274 155.281 40.0242L158.433 35.9466C158.643 35.6753 158.967 35.5266 159.317 35.5178C159.667 35.5266 159.982 35.6928 160.183 35.9728C170.075 49.7371 175.529 57.1661 186.498 72.0328C186.717 72.3216 186.769 72.6979 186.647 73.0391C186.524 73.3804 186.244 73.6429 185.903 73.7392C159.824 80.8181 145.862 85.0008 122.725 91.9223L116.868 93.6723C116.772 93.6986 116.667 93.7161 116.562 93.7161ZM159.264 38.4317L157.014 41.3455C142.754 59.8174 133.904 71.2803 119.425 90.6185L122.103 89.8135C144.794 83.0232 158.669 78.8668 183.793 72.0328C173.752 58.4261 168.351 51.0671 159.264 38.4317Z" fill="white" fill-opacity="0.02"/>
<path d="M284.088 118.716C283.93 118.716 283.781 118.681 283.632 118.619C270.598 112.669 259.62 107.568 249.01 102.633C229.673 93.6373 211.412 85.1408 185.185 73.6866C184.791 73.5116 184.537 73.1354 184.528 72.7066C184.52 72.2778 184.765 71.8841 185.15 71.7003C212.742 58.4699 225.374 52.5109 248.739 42.3518C249.273 42.1243 249.894 42.3431 250.157 42.8681C264.934 72.5754 272.594 88.1422 285.094 117.193C285.27 117.604 285.182 118.094 284.858 118.409C284.639 118.611 284.368 118.716 284.088 118.716ZM188.249 72.6366C213.338 83.627 231.126 91.9048 249.938 100.646C259.839 105.249 270.055 110 281.96 115.443C270.265 88.3697 263.052 73.6866 248.669 44.7669C226.548 54.3922 213.968 60.2987 188.249 72.6366Z" fill="white" fill-opacity="0.02"/>
<path d="M284.088 118.716C284.018 118.716 283.956 118.707 283.886 118.698C283.527 118.628 283.23 118.392 283.081 118.051C270.58 88.9909 263.349 74.2992 248.196 43.8306C247.977 43.3844 248.082 42.8506 248.45 42.5268C248.818 42.2031 249.361 42.1593 249.781 42.4306C263.087 51.1809 273.189 57.8923 282.95 64.3763C293.017 71.0616 302.524 77.388 315.129 85.6658C315.401 85.8496 315.585 86.1383 315.62 86.4621C315.655 86.7859 315.541 87.1096 315.313 87.3459C305.272 97.4962 299.18 103.735 289.086 114.069L284.876 118.383C284.665 118.602 284.377 118.716 284.088 118.716ZM251.96 46.4907C265.337 73.3891 272.839 88.7809 284.447 115.688L287.519 112.547C297.297 102.536 303.32 96.3674 312.818 86.7683C300.755 78.8406 291.511 72.6979 281.742 66.2051C272.821 60.2812 263.621 54.1647 251.96 46.4907Z" fill="white" fill-opacity="0.02"/>
<path d="M83.9708 129.864C83.9008 129.864 83.8307 129.855 83.7695 129.846C83.393 129.776 83.0779 129.514 82.9466 129.155C71.6802 98.7563 66.6116 83.067 60.5713 55.5823C60.475 55.1535 60.6501 54.7072 61.009 54.4535C61.3679 54.1997 61.8494 54.191 62.2258 54.4272C82.2463 67.0977 93.7753 75.1217 117.201 91.7385C117.455 91.9223 117.621 92.2023 117.656 92.5173C117.691 92.8323 117.586 93.1386 117.376 93.3748C107.362 104.339 100.971 111.47 93.5652 119.731C90.8777 122.732 88.0239 125.908 84.785 129.514C84.5749 129.732 84.2772 129.864 83.9708 129.864ZM63.2763 57.6736C68.9314 82.962 73.9212 98.4413 84.3647 126.687C87.1135 123.625 89.5821 120.868 91.9282 118.252C99.124 110.219 105.374 103.254 114.916 92.7973C91.5168 76.2067 80.6268 68.7077 63.2763 57.6736Z" fill="white" fill-opacity="0.02"/>
<path d="M1.10528 104.444C0.650069 104.444 0.238636 104.155 0.0810639 103.726C-0.0852624 103.28 0.0635324 102.773 0.439955 102.484C21.7472 86.1033 34.1955 76.233 60.9565 54.4972C61.3417 54.1822 61.902 54.1735 62.2959 54.471C62.6986 54.7685 62.8474 55.3023 62.6548 55.766C55.0826 74.2292 51.6072 83.5045 45.9521 102.038C45.8121 102.484 45.4094 102.799 44.9366 102.808C26.702 103.376 17.7029 103.709 1.14903 104.444C1.14027 104.444 1.12279 104.444 1.10528 104.444ZM59.0131 58.8899C35.6049 77.8868 23.3493 87.6084 4.51936 102.108C18.7359 101.486 27.6562 101.154 44.0875 100.646C49.2174 83.8808 52.5964 74.6579 59.0131 58.8899Z" fill="white" fill-opacity="0.02"/>
<path d="M83.9708 129.864C83.752 129.864 83.5331 129.794 83.3405 129.662L77.4228 125.497C64.747 116.581 57.0872 111.19 44.2976 102.615C43.8949 102.344 43.7198 101.845 43.8599 101.39C49.5413 82.7782 53.0341 73.4591 60.6326 54.926C60.8164 54.4797 61.2629 54.2085 61.7356 54.2522C62.2083 54.296 62.611 54.6372 62.7073 55.1098C68.7125 82.472 73.7636 98.0912 84.995 128.385C85.1613 128.831 85.0125 129.339 84.6361 129.627C84.4435 129.785 84.2072 129.864 83.9708 129.864ZM46.1884 101.259C58.6016 109.589 66.2176 114.944 78.6833 123.712L81.7298 125.856C71.7677 98.8175 66.8304 83.4345 61.3329 58.9949C54.7586 75.1304 51.3708 84.3358 46.1884 101.259Z" fill="white" fill-opacity="0.02"/>
<path d="M83.9708 129.864C83.6469 129.864 83.323 129.715 83.1129 129.444C82.7803 129.024 82.8066 128.429 83.1567 128.035C86.3957 124.43 89.2495 121.253 91.937 118.252C99.3429 109.992 105.742 102.851 115.757 91.8873C115.888 91.7385 116.063 91.6335 116.247 91.581L122.103 89.8309C145.258 82.9007 159.229 78.7181 185.334 71.6303C185.868 71.4903 186.428 71.7616 186.638 72.2866C186.839 72.8029 186.629 73.3891 186.139 73.6517C163.86 85.5608 147.201 94.9236 131.094 103.98C116.291 112.302 102.319 120.16 84.4873 129.732C84.321 129.82 84.1459 129.864 83.9708 129.864ZM117.166 93.5848C107.265 104.418 100.91 111.514 93.5564 119.713C92.0945 121.35 90.5801 123.038 88.9781 124.823C104.219 116.572 116.79 109.502 130.017 102.073C144.023 94.1974 158.441 86.0946 176.615 76.2855C156.183 81.9119 142.964 85.8758 122.734 91.931L117.166 93.5848Z" fill="white" fill-opacity="0.02"/>
<path d="M284.088 118.716C249.325 118.654 231.336 118.567 194.928 118.331C194.412 118.331 193.965 117.963 193.86 117.456C191.514 106.142 189.886 98.38 188.1 89.8397C187.032 84.7645 185.911 79.4181 184.554 72.8991C184.467 72.4966 184.616 72.0853 184.94 71.8228C185.255 71.5691 185.693 71.5078 186.069 71.6653C212.313 83.137 230.592 91.6335 249.938 100.638C260.548 105.573 271.517 110.674 284.543 116.616C285.016 116.826 285.269 117.342 285.156 117.841C285.042 118.357 284.604 118.716 284.088 118.716ZM195.83 116.152C229.857 116.371 247.776 116.458 279.045 116.519C267.98 111.453 258.36 106.973 249.019 102.633C230.163 93.8648 212.322 85.5695 187.137 74.5354C188.31 80.1356 189.299 84.8783 190.253 89.4022C191.987 97.715 193.58 105.301 195.83 116.152Z" fill="white" fill-opacity="0.02"/>
<path d="M83.9708 129.864C83.4894 129.864 83.0604 129.549 82.9203 129.085C82.7715 128.586 82.9903 128.052 83.4543 127.807C101.26 118.243 115.231 110.385 130.026 102.073C146.142 93.0073 162.809 83.6357 185.115 71.7178C185.421 71.5516 185.78 71.5428 186.095 71.6916C186.41 71.8403 186.629 72.1203 186.699 72.4616C188.065 78.9806 189.185 84.327 190.245 89.4022C192.039 97.9337 193.667 105.704 196.005 117.018C196.066 117.316 195.996 117.631 195.821 117.884C195.637 118.138 195.366 118.296 195.059 118.331L178.068 120.221C141.966 124.237 120.169 126.652 84.0671 129.864C84.0321 129.855 83.9971 129.864 83.9708 129.864ZM184.852 74.3342C163.212 85.9196 146.886 95.0899 131.094 103.971C117.621 111.549 104.823 118.742 89.1794 127.195C122.165 124.22 143.542 121.84 177.831 118.024L193.624 116.274C191.409 105.59 189.833 98.0737 188.1 89.8397C187.111 85.1496 186.078 80.2144 184.852 74.3342Z" fill="white" fill-opacity="0.02"/>
<path d="M270.475 166.475C270.326 166.475 270.169 166.44 270.029 166.379C269.521 166.151 269.267 165.582 269.433 165.057C275.421 145.938 278.222 136.365 283.028 117.359C283.072 117.176 283.169 117.001 283.309 116.861L287.519 112.547C297.613 102.213 303.705 95.9737 313.755 85.8146C314.132 85.4296 314.736 85.3771 315.173 85.7008C315.611 86.0158 315.751 86.6021 315.506 87.0834C301.359 114.901 291.879 131.85 271.421 165.941C271.211 166.282 270.852 166.475 270.475 166.475ZM285.077 118.173C281.094 133.932 278.476 143.217 274.248 156.955C290.058 130.441 298.978 114.489 310.341 92.386C303.005 99.8238 297.403 105.555 289.086 114.069L285.077 118.173Z" fill="white" fill-opacity="0.02"/>
<path d="M270.475 166.475C270.274 166.475 270.081 166.422 269.906 166.317C246.866 152.212 232.01 142.578 209.53 128C204.846 124.963 199.839 121.717 194.341 118.164C193.93 117.902 193.746 117.394 193.886 116.931C194.026 116.467 194.455 116.152 194.937 116.152H194.946C231.353 116.388 249.334 116.476 284.088 116.537C284.42 116.537 284.744 116.694 284.946 116.957C285.156 117.219 285.226 117.569 285.147 117.893C280.332 136.951 277.522 146.55 271.526 165.705C271.421 166.029 271.184 166.282 270.869 166.405C270.738 166.449 270.607 166.475 270.475 166.475ZM198.675 118.357C202.955 121.131 206.947 123.712 210.72 126.162C232.798 140.478 247.522 150.024 269.854 163.719C275.412 145.929 278.196 136.4 282.678 118.716C250.035 118.654 232.141 118.567 198.675 118.357Z" fill="white" fill-opacity="0.02"/>
<path d="M191.619 154.749C191.549 154.749 191.47 154.741 191.391 154.723C155.491 147.233 133.641 141.93 105.978 135.219C99.0627 133.539 91.7444 131.762 83.7082 129.829C83.1829 129.706 82.8328 129.216 82.8766 128.682C82.9116 128.149 83.3405 127.72 83.8745 127.676C119.959 124.465 141.739 122.05 177.831 118.033L194.823 116.152C195.147 116.117 195.471 116.231 195.707 116.458C195.943 116.686 196.057 117.009 196.031 117.333C194.823 130.791 194.158 138.045 193.055 150.077L192.713 153.752C192.687 154.058 192.529 154.347 192.276 154.531C192.074 154.671 191.847 154.749 191.619 154.749ZM90.6939 129.26C96.2527 130.607 101.488 131.876 106.504 133.092C133.834 139.725 155.491 144.984 190.639 152.334L190.866 149.884C191.934 138.255 192.599 131.089 193.729 118.471L178.068 120.212C144.225 123.975 122.961 126.337 90.6939 129.26Z" fill="white" fill-opacity="0.02"/>
<path d="M223.011 174.385C222.81 174.385 222.617 174.333 222.433 174.219C210.825 167.035 204.435 163.01 192.818 155.712L191.024 154.583C190.674 154.364 190.481 153.971 190.516 153.559L190.857 149.884C191.96 137.853 192.634 130.599 193.834 117.141C193.878 116.651 194.236 116.257 194.718 116.161C195.199 116.064 195.681 116.309 195.9 116.738C198.29 121.463 200.434 125.698 202.421 129.636C210.072 144.748 215.596 155.668 223.983 172.801C224.193 173.239 224.096 173.764 223.737 174.096C223.545 174.289 223.282 174.385 223.011 174.385ZM192.766 153.087L193.991 153.857C204.47 160.446 210.703 164.366 220.358 170.36C212.891 155.143 207.604 144.713 200.478 130.634C198.981 127.667 197.388 124.535 195.681 121.148C194.683 132.27 194.044 139.235 193.046 150.086L192.766 153.087Z" fill="white" fill-opacity="0.02"/>
<path d="M223.011 174.385C222.599 174.385 222.214 174.149 222.03 173.773C213.653 156.648 208.129 145.737 200.478 130.634C198.491 126.696 196.337 122.461 193.956 117.736C193.737 117.298 193.834 116.756 194.201 116.432C194.569 116.108 195.112 116.056 195.523 116.327C201.012 119.88 206.028 123.135 210.711 126.162C233.183 140.731 248.03 150.357 271.044 164.454C271.429 164.69 271.631 165.145 271.552 165.582C271.473 166.02 271.123 166.379 270.677 166.457C252.144 169.861 242.681 171.489 223.177 174.376C223.125 174.376 223.072 174.385 223.011 174.385ZM197.738 120.352C199.41 123.668 200.968 126.74 202.439 129.645C209.985 144.547 215.456 155.371 223.65 172.093C241.596 169.424 251.015 167.831 267.473 164.821C245.798 151.512 231.213 142.053 209.53 128C205.827 125.593 201.922 123.065 197.738 120.352Z" fill="white" fill-opacity="0.02"/>
<path d="M34.7557 147.732C34.5019 147.732 34.248 147.644 34.0467 147.469C33.7578 147.224 33.6177 146.848 33.679 146.472C36.3402 129.347 38.4324 120.081 43.8599 101.408C43.9562 101.075 44.2101 100.804 44.534 100.681C44.8579 100.559 45.2256 100.603 45.5145 100.804C58.3303 109.397 65.99 114.778 78.6833 123.712L84.6011 127.869C84.9338 128.096 85.1089 128.49 85.0563 128.892C85.0038 129.295 84.7499 129.636 84.3735 129.785C63.215 138.141 53.1304 141.904 35.0884 147.688C34.9746 147.714 34.8695 147.732 34.7557 147.732ZM45.5407 103.455C40.6384 120.448 38.5637 129.575 36.1126 145.054C52.5176 139.76 62.4972 136.059 81.686 128.49L77.4316 125.497C65.1584 116.869 57.595 111.549 45.5407 103.455Z" fill="white" fill-opacity="0.02"/>
<path d="M34.7557 147.732C34.4318 147.732 34.1167 147.583 33.9066 147.329C19.1648 129.164 11.9252 119.844 0.229844 103.998C-0.0065144 103.674 -0.0502802 103.245 0.1248 102.878C0.299881 102.51 0.658802 102.274 1.06149 102.256C17.6241 101.521 26.632 101.189 44.8753 100.62C45.243 100.611 45.5582 100.769 45.777 101.04C45.9959 101.311 46.0571 101.679 45.9608 102.011C40.5684 120.588 38.4849 129.794 35.8412 146.804C35.7712 147.233 35.4648 147.583 35.0446 147.697C34.9483 147.723 34.852 147.732 34.7557 147.732ZM3.20623 104.348C13.7811 118.628 20.8718 127.755 34.0554 144.039C36.4803 128.857 38.5725 119.696 43.431 102.851C26.9384 103.368 18.0268 103.7 3.20623 104.348Z" fill="white" fill-opacity="0.02"/>
<path d="M258.92 213.35C258.613 213.35 258.325 213.219 258.115 212.991C245.097 198.693 237.735 190.722 222.214 174.035C221.934 173.738 221.847 173.309 221.987 172.933C222.118 172.548 222.459 172.276 222.862 172.215C242.34 169.327 251.785 167.709 270.291 164.305C270.65 164.243 271.018 164.357 271.281 164.62C271.543 164.882 271.639 165.259 271.561 165.617C267.289 184.859 264.925 194.213 259.997 212.545C259.892 212.93 259.585 213.228 259.2 213.324C259.095 213.341 259.007 213.35 258.92 213.35ZM225.234 174.07C239.276 189.182 246.577 197.075 258.386 210.043C262.824 193.505 265.161 184.212 269.048 166.755C252.223 169.835 242.812 171.445 225.234 174.07Z" fill="white" fill-opacity="0.02"/>
<path d="M220.709 229.801C220.481 229.801 220.262 229.731 220.07 229.6C219.763 229.381 219.597 229.022 219.614 228.646C220.822 207.164 221.295 195.78 221.917 173.265C221.925 172.819 222.206 172.425 222.626 172.276C223.046 172.119 223.51 172.233 223.816 172.556C239.346 189.252 246.708 197.223 259.734 211.53C259.97 211.793 260.067 212.143 259.997 212.484C259.927 212.825 259.699 213.114 259.375 213.263C243.907 220.272 236.203 223.641 221.12 229.731C220.989 229.775 220.849 229.801 220.709 229.801ZM224.035 175.995C223.466 196.208 222.993 207.479 221.899 227.044C235.477 221.549 243.101 218.215 257.099 211.88C245.211 198.833 237.937 190.949 224.035 175.995Z" fill="white" fill-opacity="0.02"/>
<path d="M220.709 229.801C220.569 229.801 220.42 229.775 220.28 229.713C201.572 221.829 191.715 217.358 172.343 207.943C171.992 207.768 171.756 207.418 171.73 207.033C171.704 206.647 171.896 206.262 172.22 206.044C190.595 194.038 201.529 186.802 222.389 172.39C222.731 172.154 223.168 172.128 223.536 172.329C223.895 172.521 224.123 172.906 224.105 173.318C223.484 195.858 223.002 207.251 221.794 228.759C221.777 229.118 221.584 229.433 221.278 229.626C221.111 229.74 220.91 229.801 220.709 229.801ZM175.039 206.814C192.748 215.407 202.509 219.834 219.702 227.088C220.805 207.277 221.278 195.99 221.864 175.409C202.728 188.622 191.952 195.762 175.039 206.814Z" fill="white" fill-opacity="0.02"/>
<path d="M107.143 194.546C106.994 194.546 106.854 194.52 106.714 194.458C106.442 194.345 106.232 194.126 106.118 193.855C96.0601 168.321 91.1491 155.318 82.9203 129.094C82.8065 128.717 82.894 128.306 83.1654 128.017C83.4368 127.729 83.8395 127.606 84.2247 127.702C92.2608 129.636 99.5792 131.412 106.504 133.092C134.14 139.804 155.973 145.107 191.847 152.579C192.302 152.676 192.652 153.052 192.704 153.507C192.766 153.971 192.521 154.417 192.109 154.627L189.01 156.167C154.423 173.396 137.055 182.042 107.563 194.45C107.432 194.52 107.283 194.546 107.143 194.546ZM85.5903 130.284C93.3376 154.863 98.2223 167.814 107.747 192.008C136.547 179.863 153.889 171.226 188.03 154.216L188.31 154.076C154.222 146.927 132.844 141.738 105.987 135.21C99.6142 133.67 92.8999 132.042 85.5903 130.284Z" fill="white" fill-opacity="0.02"/>
<path d="M107.143 194.546C106.933 194.546 106.731 194.485 106.547 194.371C98.3099 189.016 91.2016 184.378 84.6449 180.099C67.5482 168.942 54.0496 160.131 34.1692 147.574C33.8103 147.347 33.6177 146.935 33.6702 146.515C33.7227 146.095 34.0204 145.745 34.423 145.614C52.4038 139.848 62.4622 136.103 83.5681 127.764C83.8483 127.65 84.1634 127.667 84.4435 127.79C84.7149 127.921 84.925 128.157 85.0126 128.446C93.2151 154.601 98.1173 167.577 108.158 193.058C108.333 193.505 108.202 194.003 107.834 194.31C107.633 194.458 107.388 194.546 107.143 194.546ZM37.3119 146.97C56.133 158.88 69.3079 167.481 85.8354 178.27C91.6218 182.042 97.8372 186.102 104.867 190.678C95.78 167.551 90.9477 154.601 83.2705 130.222C63.7315 137.931 53.6906 141.676 37.3119 146.97Z" fill="white" fill-opacity="0.02"/>
<path d="M172.824 208.048C172.588 208.048 172.351 207.969 172.15 207.82C171.782 207.531 171.634 207.05 171.782 206.604C178.155 187.773 181.911 177.36 188.721 158.451L190.586 153.279C190.7 152.964 190.945 152.719 191.26 152.614C191.575 152.509 191.917 152.544 192.197 152.719L193.991 153.848C205.599 161.146 211.99 165.171 223.589 172.355C223.904 172.548 224.096 172.889 224.105 173.256C224.114 173.624 223.939 173.974 223.632 174.184C202.754 188.613 191.812 195.85 173.419 207.864C173.244 207.995 173.034 208.048 172.824 208.048ZM192.188 155.301L190.787 159.186C184.353 177.054 180.65 187.336 174.881 204.302C191.304 193.566 202.054 186.426 221.015 173.335C210.291 166.685 203.953 162.703 192.827 155.703L192.188 155.301Z" fill="white" fill-opacity="0.02"/>
<path d="M172.824 208.048C172.763 208.048 172.71 208.039 172.649 208.03C145.73 203.681 132.617 200.837 106.88 194.511C106.425 194.397 106.083 194.003 106.048 193.531C106.013 193.058 106.276 192.621 106.714 192.437C136.136 180.055 153.478 171.419 188.03 154.216L191.129 152.676C191.531 152.474 192.013 152.536 192.346 152.833C192.678 153.131 192.801 153.603 192.652 154.023L190.787 159.195C183.985 178.086 180.23 188.499 173.866 207.304C173.708 207.759 173.288 208.048 172.824 208.048ZM110.609 193.172C133.93 198.877 146.982 201.651 172.089 205.729C178.287 187.449 182.025 177.063 188.73 158.451L189.667 155.843L189.01 156.167C155.622 172.801 138.29 181.438 110.609 193.172Z" fill="white" fill-opacity="0.02"/>
<path d="M62.576 206.122C62.1733 206.122 61.8056 205.904 61.613 205.545C48.8759 181.578 43.0633 169.774 33.749 147.058C33.5652 146.62 33.6965 146.113 34.0554 145.807C34.4231 145.5 34.9395 145.465 35.3422 145.719C55.2313 158.285 68.7388 167.105 85.8441 178.262C92.4009 182.54 99.5092 187.178 107.747 192.533C108.106 192.761 108.289 193.181 108.237 193.592C108.184 194.012 107.887 194.362 107.484 194.485C88.3653 200.575 79.2261 203.112 62.7773 206.096C62.7073 206.122 62.6373 206.122 62.576 206.122ZM37.0755 149.403C45.5319 169.791 51.3271 181.517 63.1625 203.804C78.3595 201.012 87.3586 198.571 104.604 193.102C97.1806 188.281 90.6763 184.028 84.6361 180.09C68.3886 169.494 55.3889 161.006 37.0755 149.403Z" fill="white" fill-opacity="0.02"/>
<path d="M62.576 206.122C62.4447 206.122 62.3046 206.096 62.1733 206.044C41.7502 197.993 31.7443 193.61 13.8161 185.297C13.2821 185.052 13.037 184.422 13.2646 183.879C18.2719 171.935 22.789 163.964 33.819 146.06C34.0379 145.71 34.4318 145.518 34.8433 145.544C35.2547 145.579 35.6136 145.842 35.7712 146.218C45.0505 168.846 50.8456 180.615 63.5477 204.512C63.7665 204.915 63.7053 205.414 63.3989 205.755C63.18 206 62.8824 206.122 62.576 206.122ZM15.6895 183.765C32.1645 191.396 42.0128 195.718 60.2124 202.929C48.7884 181.377 43.0633 169.66 34.5544 149.053C24.6974 165.092 20.3116 172.88 15.6895 183.765Z" fill="white" fill-opacity="0.02"/>
<path d="M14.2713 185.402C14.2276 185.402 14.175 185.402 14.1312 185.393C13.641 185.332 13.2558 184.947 13.1858 184.465L6.85666 139.935C6.80414 139.576 6.93547 139.209 7.20684 138.964C7.47822 138.719 7.85461 138.623 8.21352 138.719L11.7852 139.638C19.9702 141.738 25.3014 143.112 35.0183 145.579C35.3597 145.667 35.6311 145.903 35.7624 146.227C35.8938 146.55 35.8587 146.918 35.6836 147.215C24.7149 165.005 20.2328 172.924 15.2868 184.737C15.1117 185.148 14.709 185.402 14.2713 185.402ZM9.26402 141.248L14.8141 180.3C19.1561 170.465 23.6819 162.555 33.0487 147.338C24.2246 145.089 19.0248 143.759 11.2512 141.755L9.26402 141.248Z" fill="white" fill-opacity="0.02"/>
<path d="M34.7557 147.732C34.6682 147.732 34.5719 147.723 34.4843 147.697C24.7586 145.22 19.4274 143.855 11.2424 141.755L7.67076 140.836C7.25932 140.731 6.94419 140.399 6.8654 139.979L0.0197523 103.551C-0.0765419 103.053 0.186062 102.554 0.658779 102.344C1.12274 102.143 1.67424 102.283 1.97188 102.694C13.6497 118.514 20.8718 127.807 35.5873 145.947C35.885 146.314 35.9113 146.83 35.6574 147.224C35.4735 147.548 35.1234 147.732 34.7557 147.732ZM8.89634 138.894L11.7939 139.638C19.0335 141.501 24.0408 142.788 31.8319 144.765C19.6288 129.689 12.6518 120.737 3.06613 107.822L8.89634 138.894Z" fill="white" fill-opacity="0.02"/>
<path d="M258.92 213.35C258.657 213.35 258.395 213.254 258.193 213.07C257.887 212.799 257.756 212.37 257.869 211.968C262.789 193.671 265.153 184.343 269.416 165.136C269.495 164.777 269.749 164.48 270.099 164.349C270.44 164.217 270.825 164.27 271.132 164.48C287.686 176.424 295.485 181.902 309.08 190.836C309.413 191.054 309.606 191.439 309.571 191.842C309.536 192.244 309.282 192.594 308.914 192.752C289.62 201.126 279.728 205.326 259.331 213.263C259.191 213.324 259.06 213.35 258.92 213.35ZM271.184 167.236C267.297 184.675 264.96 193.977 260.539 210.454C278.914 203.279 288.727 199.131 306.174 191.571C293.927 183.485 286.171 178.043 271.184 167.236Z" fill="white" fill-opacity="0.02"/>
<path d="M301.009 225.863C300.93 225.863 300.86 225.854 300.782 225.837C285.375 222.556 276.726 219.825 258.552 213.28C258.123 213.123 257.834 212.72 257.826 212.265C257.817 211.81 258.097 211.399 258.526 211.233C278.888 203.314 288.762 199.113 308.03 190.757C308.398 190.599 308.827 190.652 309.142 190.906C309.457 191.159 309.614 191.562 309.536 191.956C307.084 205.422 305.553 212.23 302.06 225.049C301.937 225.539 301.499 225.863 301.009 225.863ZM262.045 212.213C277.899 217.874 286.355 220.49 300.23 223.483C303.373 211.88 304.835 205.457 307.023 193.583C289.795 201.056 280 205.195 262.045 212.213Z" fill="white" fill-opacity="0.02"/>
<path d="M248.783 230.606C240.563 230.606 231.494 230.317 220.656 229.801C220.14 229.775 219.719 229.398 219.632 228.891C219.544 228.383 219.824 227.884 220.297 227.692C235.345 221.619 243.031 218.259 258.473 211.259C258.736 211.145 259.025 211.128 259.296 211.224C277.365 217.725 285.961 220.438 301.246 223.693C301.762 223.807 302.121 224.262 302.112 224.787C302.104 225.312 301.718 225.758 301.202 225.846C281.208 229.188 267.131 230.606 248.783 230.606ZM225.751 227.841C255.042 229.109 271.132 228.383 295.205 224.603C283.134 221.82 274.572 219.038 258.981 213.438C245.412 219.58 237.831 222.914 225.751 227.841Z" fill="white" fill-opacity="0.02"/>
<path d="M270.475 166.475C270.143 166.475 269.827 166.326 269.617 166.055C269.337 165.696 269.302 165.206 269.539 164.812C289.97 130.774 299.434 113.851 313.554 86.0858C313.79 85.6221 314.324 85.3858 314.823 85.5258C315.322 85.6658 315.655 86.1471 315.62 86.6633C313.554 112.774 311.348 127.431 305.334 154.872C305.246 155.248 304.975 155.563 304.598 155.677C291.564 159.886 284.683 162.091 270.808 166.414C270.694 166.457 270.589 166.475 270.475 166.475ZM312.985 92.0185C300.502 116.362 291.135 133.031 272.891 163.482C284.788 159.772 291.564 157.593 303.329 153.796C308.783 128.849 311.059 114.507 312.985 92.0185Z" fill="white" fill-opacity="0.02"/>
<path d="M308.468 192.857C308.258 192.857 308.047 192.796 307.864 192.673C294.234 183.713 286.416 178.218 269.836 166.256C269.504 166.011 269.328 165.6 269.398 165.197C269.469 164.795 269.757 164.454 270.151 164.331C284.026 160.017 290.898 157.803 303.924 153.603C304.239 153.498 304.581 153.551 304.852 153.726C305.124 153.901 305.307 154.198 305.342 154.522L309.544 191.641C309.588 192.061 309.396 192.472 309.028 192.699C308.862 192.805 308.66 192.857 308.468 192.857ZM272.891 165.766C287.467 176.266 295.161 181.674 307.111 189.558L303.32 156.088C291.756 159.825 284.972 162.003 272.891 165.766Z" fill="white" fill-opacity="0.02"/>
<path d="M114.015 224.874C113.901 224.874 113.787 224.857 113.673 224.822C92.2784 217.892 82.0449 214.059 62.1646 206.044C61.7093 205.86 61.438 205.405 61.4818 204.915C61.5255 204.425 61.8932 204.04 62.3746 203.952C78.7009 200.986 87.7876 198.466 106.801 192.411C107.099 192.314 107.423 192.349 107.685 192.507C107.957 192.664 108.141 192.927 108.202 193.233C110.714 205.352 112.062 211.294 115.065 223.527C115.161 223.912 115.039 224.314 114.75 224.586C114.549 224.778 114.286 224.874 114.015 224.874ZM66.4715 205.422C83.5243 212.265 93.644 216.019 112.483 222.144C109.883 211.521 108.552 205.606 106.32 194.87C89.4333 200.225 80.3729 202.762 66.4715 205.422Z" fill="white" fill-opacity="0.02"/>
<path d="M40.4109 212.834C40.1132 212.834 39.8243 212.711 39.6142 212.493C28.8643 201.074 23.393 195.368 13.4922 185.069C13.1246 184.693 13.0808 184.107 13.3872 183.678C13.6936 183.249 14.2626 183.1 14.7353 183.319C32.6285 191.614 42.5993 195.99 62.9787 204.014C63.3989 204.18 63.679 204.591 63.6703 205.037C63.6615 205.484 63.3814 205.895 62.9612 206.052C52.7103 209.903 48.3245 211.233 40.6297 212.816C40.5509 212.834 40.4809 212.834 40.4109 212.834ZM19.0861 187.738C26.5357 195.5 31.8231 201.039 40.7785 210.55C47.2915 209.194 51.4759 207.969 59.5121 205.002C42.8445 198.396 33.1713 194.213 19.0861 187.738Z" fill="white" fill-opacity="0.02"/>
<path d="M114.015 224.874C113.953 224.874 113.901 224.866 113.84 224.857L40.2357 212.816C39.7105 212.729 39.3253 212.283 39.3166 211.758C39.3078 211.233 39.6755 210.769 40.192 210.664C47.7554 209.115 52.0712 207.803 62.1996 203.996C62.4535 203.9 62.7423 203.9 62.9962 204.005C82.824 211.994 93.0225 215.827 114.365 222.731C114.908 222.906 115.223 223.474 115.091 224.026C114.951 224.542 114.514 224.874 114.015 224.874ZM46.1535 211.574L100.463 220.455C87.1835 215.949 77.6504 212.283 62.5585 206.201C55.2314 208.949 50.9331 210.393 46.1535 211.574Z" fill="white" fill-opacity="0.02"/>
<path d="M114.015 224.874C113.524 224.874 113.078 224.542 112.955 224.043C109.944 211.784 108.596 205.816 106.075 193.671C105.996 193.303 106.119 192.918 106.39 192.664C106.661 192.402 107.046 192.297 107.414 192.393C133.09 198.711 146.168 201.546 173.017 205.877C173.516 205.956 173.892 206.367 173.936 206.866C173.98 207.365 173.673 207.829 173.192 207.995C147.901 216.465 135.838 220.088 114.269 224.857C114.172 224.866 114.093 224.874 114.015 224.874ZM108.57 194.931C110.793 205.597 112.133 211.521 114.82 222.486C134.438 218.119 146.247 214.645 168.272 207.321C144.794 203.454 131.803 200.627 108.57 194.931Z" fill="white" fill-opacity="0.02"/>
<path d="M314.525 87.6784C314.315 87.6784 314.105 87.6171 313.921 87.4946C301.307 79.2081 291.8 72.8904 281.733 66.1964C271.972 59.7124 261.87 53.0009 248.573 44.2506C248.249 44.0319 248.056 43.6644 248.082 43.2706C248.109 42.8768 248.336 42.5268 248.695 42.3606C272.699 30.5652 283.834 25.4812 302.445 18.6297C302.734 18.5247 303.058 18.5422 303.329 18.691C303.6 18.8398 303.802 19.0935 303.88 19.391C310.534 45.6594 312.95 59.4587 315.611 86.4796C315.655 86.8996 315.445 87.3021 315.086 87.5209C314.919 87.6259 314.727 87.6784 314.525 87.6784ZM251.383 43.4894C263.91 51.7321 273.583 58.1549 282.95 64.3851C292.5 70.729 301.543 76.7405 313.212 84.4145C310.691 59.4062 308.275 45.7557 302.06 21.1148C284.657 27.5551 273.653 32.5602 251.383 43.4894Z" fill="white" fill-opacity="0.02"/>
<path d="M302.83 20.7561C302.497 20.7561 302.173 20.6073 301.963 20.3361L298.313 15.6459C281.855 -5.51234 271.92 -18.279 255.226 -40.4873C254.893 -40.9248 254.946 -41.5461 255.339 -41.9311C255.733 -42.3161 256.355 -42.3511 256.784 -42.0011C267.49 -33.5046 275.281 -27.2568 283.536 -20.6416C289.069 -16.2052 294.951 -11.4888 302.287 -5.63484C302.515 -5.45108 302.664 -5.18858 302.69 -4.89107C303.662 4.41051 303.898 9.23193 303.916 19.671C303.916 20.1348 303.618 20.5548 303.18 20.7036C303.066 20.7386 302.944 20.7561 302.83 20.7561ZM262.141 -34.9571C275.876 -16.774 285.357 -4.57605 300.038 14.2983L301.718 16.4597C301.657 8.3744 301.386 3.71048 300.563 -4.21729C293.393 -9.93999 287.607 -14.5776 282.162 -18.944C275.745 -24.098 269.6 -29.0244 262.141 -34.9571Z" fill="white" fill-opacity="0.02"/>
<path d="M301.604 -3.69227C301.359 -3.69227 301.123 -3.77103 300.922 -3.92854C293.586 -9.78249 287.703 -14.4989 282.162 -18.9353C273.907 -25.5505 266.116 -31.7982 255.418 -40.286C255.033 -40.5923 254.902 -41.1086 255.086 -41.5636C255.278 -42.0186 255.742 -42.2811 256.224 -42.2286L287.423 -38.4835C287.791 -38.4397 288.115 -38.2122 288.281 -37.871C294.435 -25.1305 297.385 -18.4103 302.62 -5.17982C302.804 -4.71606 302.655 -4.19104 302.252 -3.90228C302.06 -3.77103 301.832 -3.69227 301.604 -3.69227ZM259.804 -39.6123C268.996 -32.3058 276.078 -26.6356 283.527 -20.6591C288.228 -16.8965 293.174 -12.9238 299.057 -8.22493C294.776 -18.9003 291.975 -25.2005 286.565 -36.4009L259.804 -39.6123Z" fill="white" fill-opacity="0.02"/>
<path d="M301.604 -3.69227C301.158 -3.69227 300.755 -3.96353 300.589 -4.38354C295.319 -17.7103 292.518 -24.098 286.311 -36.9259C286.119 -37.3284 286.189 -37.801 286.486 -38.1335C286.784 -38.466 287.257 -38.5797 287.677 -38.431L307.207 -31.317C307.715 -31.1332 308.012 -30.5995 307.907 -30.0744L302.69 -4.57605C302.594 -4.10354 302.2 -3.74477 301.71 -3.70978C301.666 -3.70103 301.639 -3.69227 301.604 -3.69227ZM289.454 -35.4559C294.321 -25.3055 297.157 -18.8741 301.272 -8.59245L305.57 -29.5844L289.454 -35.4559Z" fill="white" fill-opacity="0.02"/>
<path d="M338.389 32.4902C338.266 32.4902 338.135 32.4727 338.012 32.4202C323.918 27.3013 316.95 25 302.515 20.7123C302.051 20.5723 301.736 20.1523 301.736 19.6623C301.718 9.31943 301.482 4.54176 300.519 -4.67231C300.475 -5.13607 300.72 -5.57359 301.141 -5.77485C301.561 -5.9761 302.06 -5.8886 302.384 -5.55609C316.81 8.91691 324.374 16.3459 339.15 30.6089C339.518 30.9677 339.588 31.5364 339.317 31.974C339.115 32.2977 338.757 32.4902 338.389 32.4902ZM303.916 18.8485C316.022 22.4536 323.131 24.755 333.951 28.6313C322.176 17.2472 314.876 10.0545 302.996 -1.83721C303.697 5.37304 303.889 10.142 303.916 18.8485Z" fill="white" fill-opacity="0.02"/>
<path d="M343.282 7.81437C343.186 7.81437 343.09 7.80562 342.993 7.77937L301.316 -3.72727C300.764 -3.88478 300.423 -4.43604 300.536 -5.00481L305.754 -30.5032C305.833 -30.9057 306.139 -31.2295 306.533 -31.3345C306.927 -31.4482 307.356 -31.3257 307.627 -31.0195C314.814 -23.2492 321.161 -16.9752 327.884 -10.3338C333.023 -5.25858 338.336 -0.00839996 344.07 5.97681C344.412 6.33557 344.473 6.86934 344.219 7.2981C344.018 7.61312 343.659 7.81437 343.282 7.81437ZM302.883 -5.57359L339.719 4.60301C335.045 -0.200905 330.642 -4.55856 326.352 -8.7937C320.067 -15.0064 314.105 -20.8866 307.478 -27.9919L302.883 -5.57359Z" fill="white" fill-opacity="0.02"/>
<path d="M338.389 32.4902C338.109 32.4902 337.837 32.3852 337.627 32.184C322.833 17.9122 315.27 10.4657 300.825 -4.01604C300.475 -4.36604 300.405 -4.90857 300.659 -5.33733C300.913 -5.7661 301.421 -5.96735 301.893 -5.84485L343.571 5.6618C344.123 5.81055 344.464 6.37057 344.35 6.9306L339.457 31.6064C339.378 32.0002 339.089 32.3152 338.713 32.4377C338.608 32.4727 338.503 32.4902 338.389 32.4902ZM305.299 -2.63348C317.449 9.52943 324.855 16.8097 337.706 29.2089L342.013 7.49936L305.299 -2.63348Z" fill="white" fill-opacity="0.02"/>
<path d="M339.623 58.7849C339.334 58.7849 339.045 58.6711 338.835 58.4524C324.339 43.5944 316.95 35.9991 302.033 20.4148C301.692 20.056 301.631 19.5135 301.893 19.0848C302.156 18.6647 302.664 18.4635 303.136 18.6035C317.458 22.8561 324.776 25.28 338.757 30.3552C339.15 30.4952 339.422 30.8452 339.466 31.2564C340.612 41.1705 340.866 46.6045 340.709 57.6999C340.7 58.1374 340.429 58.5399 340.017 58.6974C339.895 58.7674 339.763 58.7849 339.623 58.7849ZM306.48 21.8936C318.937 34.8878 326.177 42.3518 338.564 55.0397C338.643 45.9219 338.371 40.8643 337.382 32.1927C325.039 27.7126 318.158 25.4112 306.48 21.8936Z" fill="white" fill-opacity="0.02"/>
<path d="M339.623 58.7849C339.404 58.7849 339.186 58.7149 338.993 58.5836C338.695 58.3736 338.52 58.0323 338.529 57.6736C338.687 46.5607 338.45 41.4243 337.303 31.5102C337.26 31.0989 337.443 30.6964 337.794 30.4689C338.144 30.2414 338.581 30.2326 338.94 30.4426C347.3 35.3078 352.728 38.4842 359.083 42.2031L368.573 47.7507C368.958 47.9783 369.168 48.4158 369.098 48.862C369.028 49.3083 368.695 49.6583 368.258 49.7633C358.514 52.0034 352.964 53.7622 340 58.7149C339.886 58.7674 339.754 58.7849 339.623 58.7849ZM339.719 33.4352C340.604 41.573 340.84 46.8582 340.735 56.0985C351.581 51.9772 357.157 50.1746 365.106 48.2583L357.98 44.0931C352.115 40.663 347.038 37.6966 339.719 33.4352Z" fill="white" fill-opacity="0.02"/>
<path d="M368.021 49.7896C367.829 49.7896 367.645 49.7371 367.47 49.6408L357.98 44.0931C351.625 40.3743 346.197 37.1979 337.837 32.3415C337.435 32.1052 337.225 31.6414 337.312 31.1864L342.206 6.51057C342.293 6.08181 342.617 5.7493 343.046 5.65305C343.466 5.55679 343.913 5.72305 344.167 6.07307C345.996 8.5844 347.668 10.842 349.218 12.9158C357.954 24.685 362.769 31.1602 369.054 48.3108C369.212 48.7483 369.08 49.2296 368.73 49.5271C368.529 49.7021 368.275 49.7896 368.021 49.7896ZM339.614 30.8364C347.598 35.4828 352.903 38.5804 359.083 42.2031L365.92 46.2019C360.274 31.4927 355.827 25.4987 347.458 14.2283C346.338 12.7145 345.138 11.1132 343.869 9.38068L339.614 30.8364Z" fill="white" fill-opacity="0.02"/>
<path d="M314.525 87.6784C314.412 87.6784 314.298 87.6609 314.193 87.6259C313.781 87.4946 313.484 87.1271 313.44 86.6896C310.787 59.7999 308.389 46.0707 301.762 19.9248C301.639 19.4435 301.858 18.936 302.296 18.6998C302.734 18.4635 303.276 18.5422 303.618 18.901C318.535 34.4853 325.914 42.0806 340.411 56.9298C340.805 57.3323 340.831 57.9799 340.455 58.4086C331.832 68.454 326.807 74.2029 315.786 86.8121L315.357 87.3109C315.147 87.5471 314.841 87.6784 314.525 87.6784ZM304.896 23.3987C310.604 46.342 312.941 59.9399 315.366 83.9595C325.267 72.6279 330.239 66.9402 338.144 57.7348C325.048 44.3206 317.738 36.8041 304.896 23.3987Z" fill="white" fill-opacity="0.02"/>
<path d="M363.023 97.7062C362.953 97.7062 362.874 97.6975 362.804 97.68C354.96 96.0612 348.675 94.7574 342.477 93.4711C334.152 91.7385 325.967 90.041 314.315 87.6521C313.93 87.5734 313.624 87.3021 313.501 86.9259C313.379 86.5496 313.457 86.1471 313.711 85.8583L314.149 85.3595C325.162 72.7591 330.186 67.0014 338.8 56.9736C339.028 56.7111 339.361 56.5711 339.711 56.5973C340.061 56.6236 340.367 56.8073 340.56 57.1048C350.977 73.4416 355.827 81.3694 363.986 96.0787C364.196 96.4549 364.161 96.9099 363.907 97.26C363.688 97.5487 363.364 97.7062 363.023 97.7062ZM316.591 85.8933C327.28 88.0896 335.036 89.6997 342.915 91.336C348.491 92.491 354.12 93.6636 360.904 95.0636C353.647 82.0607 348.859 74.2292 339.492 59.5287C331.648 68.6552 326.65 74.3779 316.591 85.8933Z" fill="white" fill-opacity="0.02"/>
<path d="M363.023 97.7062C363.005 97.7062 362.988 97.7062 362.97 97.7062C362.594 97.6887 362.252 97.4787 362.069 97.1462C353.927 82.4807 349.095 74.5792 338.704 58.2861C338.433 57.8661 338.485 57.3148 338.827 56.9473C339.168 56.5798 339.711 56.5011 340.157 56.7373C355.687 65.3301 362.848 69.2677 376.591 76.6005C376.863 76.7493 377.064 77.003 377.143 77.3093C377.222 77.6155 377.16 77.9305 376.985 78.1843L363.924 97.2337C363.714 97.5312 363.382 97.7062 363.023 97.7062ZM342.853 60.7274C351.389 74.1592 356.072 81.8857 363.119 94.5299L374.482 77.948C362.55 71.5866 355.512 67.7277 342.853 60.7274Z" fill="white" fill-opacity="0.02"/>
<path d="M376.066 78.6656C375.891 78.6656 375.716 78.6218 375.55 78.5343C361.797 71.1928 354.628 67.2464 339.089 58.6536C338.713 58.4436 338.494 58.0411 338.529 57.6211C338.555 57.2011 338.835 56.8248 339.229 56.6761C352.308 51.6796 357.91 49.9033 367.776 47.637C368.319 47.5145 368.862 47.812 369.045 48.3283C373.177 59.5987 374.841 65.5751 377.134 77.3705C377.213 77.7818 377.047 78.2106 376.714 78.4556C376.53 78.5868 376.303 78.6656 376.066 78.6656ZM342.214 57.8749C355.591 65.2776 362.69 69.1715 374.552 75.5155C372.547 65.5139 370.954 59.9312 367.33 49.9821C358.707 51.9946 353.244 53.7097 342.214 57.8749Z" fill="white" fill-opacity="0.02"/>
<path d="M304.266 155.738C304.082 155.738 303.907 155.694 303.74 155.598C303.32 155.362 303.101 154.881 303.198 154.408C309.185 127.09 311.392 112.485 313.44 86.4971C313.466 86.1821 313.624 85.8933 313.869 85.7096C314.123 85.5171 314.438 85.4471 314.744 85.5083C326.396 87.8971 334.581 89.5947 342.906 91.3273C349.104 92.6136 355.389 93.9173 363.233 95.5361C363.627 95.6149 363.951 95.9124 364.064 96.2974C364.178 96.6824 364.073 97.1024 363.776 97.3912C353.306 107.629 345.024 115.854 335.421 125.366C326.991 133.731 317.432 143.208 305.019 155.414C304.817 155.624 304.546 155.738 304.266 155.738ZM315.523 87.9059C313.58 112.1 311.453 126.53 306.113 151.293C317.265 140.32 326.063 131.587 333.889 123.826C343.037 114.752 350.995 106.859 360.782 97.2775C353.857 95.8512 348.132 94.6611 342.468 93.4798C334.432 91.8085 326.536 90.1635 315.523 87.9059Z" fill="white" fill-opacity="0.02"/>
<path d="M334.52 156.29C325.967 156.29 316.399 156.097 304.231 155.738C303.793 155.729 303.408 155.449 303.241 155.047C303.084 154.636 303.18 154.172 303.495 153.866C315.909 141.668 325.459 132.191 333.889 123.826C343.492 114.306 351.783 106.08 362.252 95.8337C362.532 95.5536 362.953 95.4574 363.329 95.5712C363.714 95.6849 364.003 95.9999 364.082 96.3849L376.504 153.288C376.574 153.594 376.504 153.918 376.311 154.172C376.119 154.426 375.83 154.583 375.515 154.609C359.924 155.764 348.605 156.29 334.52 156.29ZM306.857 153.621C336.673 154.469 350.566 154.233 374.097 152.518L362.366 98.7738C352.553 108.382 344.587 116.283 335.43 125.366C327.42 133.32 318.386 142.28 306.857 153.621Z" fill="white" fill-opacity="0.02"/>
<path d="M308.468 192.857C308.301 192.857 308.126 192.822 307.977 192.743C307.645 192.577 307.426 192.253 307.382 191.886L303.18 154.767C303.145 154.452 303.25 154.137 303.46 153.901C303.679 153.664 303.977 153.533 304.301 153.551C336.445 154.496 350.391 154.277 375.366 152.431C375.882 152.387 376.346 152.719 376.495 153.209C376.644 153.699 376.425 154.233 375.979 154.478C356.125 165.495 343.107 173.029 325.074 183.442C320.189 186.259 314.919 189.313 309.019 192.717C308.844 192.804 308.651 192.857 308.468 192.857ZM305.491 155.773L309.361 189.987C314.683 186.916 319.489 184.142 323.971 181.552C340.674 171.9 353.078 164.734 370.595 154.968C348.797 156.473 334.695 156.622 305.491 155.773Z" fill="white" fill-opacity="0.02"/>
<path d="M342.249 213.193C342.092 213.193 341.934 213.158 341.777 213.088C331.167 208.056 323.997 203.576 307.846 192.673C307.531 192.463 307.356 192.104 307.365 191.728C307.382 191.352 307.583 191.011 307.907 190.818C313.808 187.414 319.077 184.369 323.962 181.552C341.996 171.13 355.03 163.596 374.902 152.571C375.331 152.334 375.865 152.404 376.206 152.754C376.548 153.104 376.626 153.638 376.381 154.067L343.195 212.641C343.002 212.991 342.635 213.193 342.249 213.193ZM310.525 191.833C325.1 201.651 332.121 206.017 341.794 210.664L372.565 156.359C354.584 166.37 342.039 173.624 325.065 183.433C320.609 186.014 315.821 188.779 310.525 191.833Z" fill="white" fill-opacity="0.02"/>
<path d="M301.009 225.863C300.712 225.863 300.431 225.741 300.221 225.531C299.95 225.251 299.854 224.857 299.95 224.481C303.46 211.574 304.913 205.116 307.382 191.562C307.452 191.194 307.697 190.897 308.03 190.748C308.371 190.599 308.765 190.643 309.072 190.853C325.118 201.686 332.226 206.131 342.713 211.101C343.107 211.285 343.352 211.688 343.335 212.125C343.317 212.563 343.046 212.948 342.643 213.105C327.271 219.134 318.754 221.75 301.254 225.828C301.176 225.854 301.097 225.863 301.009 225.863ZM309.238 193.61C307.076 205.396 305.561 212.09 302.541 223.291C317.861 219.685 326.186 217.148 339.501 211.994C330.37 207.505 323.279 203.06 309.238 193.61Z" fill="white" fill-opacity="0.02"/>
<path d="M184.143 231.07C161.181 231.07 141.327 229.162 113.84 224.866C113.323 224.787 112.929 224.341 112.912 223.816C112.894 223.291 113.253 222.827 113.77 222.713C135.243 217.97 147.262 214.356 172.474 205.921C172.745 205.834 173.043 205.851 173.297 205.974C192.626 215.372 202.456 219.834 221.129 227.692C221.602 227.893 221.864 228.383 221.785 228.882C221.698 229.381 221.278 229.757 220.77 229.792C207.035 230.623 195.226 231.07 184.143 231.07ZM119.897 223.579C155.614 228.935 178.751 229.958 215.964 227.884C200.067 221.138 190.323 216.675 172.754 208.135C150.029 215.739 138.001 219.414 119.897 223.579Z" fill="white" fill-opacity="0.02"/>
<path d="M70.3671 246.339C70.0607 246.339 69.7543 246.208 69.5442 245.971C57.9014 232.741 51.8524 226.003 39.5967 212.484C39.2816 212.143 39.2203 211.635 39.4479 211.224C39.6755 210.813 40.122 210.594 40.5859 210.664L114.19 222.704C114.645 222.774 115.004 223.133 115.091 223.579C115.179 224.034 114.969 224.489 114.566 224.726C93.0925 237.335 83.7432 242.217 70.691 246.295C70.5859 246.321 70.4721 246.339 70.3671 246.339ZM43.3172 213.333C54.0584 225.189 60.0461 231.875 70.7173 243.994C82.684 240.196 91.7269 235.558 110.846 224.376L43.3172 213.333Z" fill="white" fill-opacity="0.02"/>
<path d="M140.548 260.514C140.531 260.514 140.513 260.514 140.487 260.514C109.261 258.878 94.7558 255.947 69.9644 246.269C69.5354 246.103 69.2553 245.674 69.2728 245.21C69.2903 244.746 69.5967 244.344 70.0431 244.204C82.8853 240.196 92.1471 235.357 113.463 222.844C113.945 222.564 114.557 222.687 114.89 223.133C125.815 237.667 131.269 244.965 141.432 258.773C141.686 259.114 141.712 259.569 141.511 259.937C141.318 260.296 140.942 260.514 140.548 260.514ZM73.6323 245.341C95.8588 253.803 110.11 256.62 138.289 258.204C129.168 245.823 123.758 238.586 113.726 225.224C94.4669 236.512 85.0826 241.482 73.6323 245.341Z" fill="white" fill-opacity="0.02"/>
<path d="M140.548 260.514C140.207 260.514 139.874 260.357 139.664 260.068C129.509 246.269 124.056 238.971 113.139 224.446C112.868 224.087 112.85 223.606 113.078 223.229C113.306 222.844 113.743 222.643 114.181 222.713C154.756 229.066 178.637 230.168 220.639 227.622C221.173 227.596 221.637 227.937 221.768 228.444C221.899 228.952 221.645 229.486 221.164 229.705C185.596 246.103 168.333 252.718 140.837 260.479C140.741 260.497 140.644 260.514 140.548 260.514ZM116.501 225.277C126.218 238.21 131.61 245.429 140.977 258.161C166.539 250.915 183.329 244.589 214.983 230.133C177.201 232.19 153.784 231 116.501 225.277Z" fill="white" fill-opacity="0.02"/>
<path d="M201.248 267.261C179.915 267.261 164.805 265.467 140.329 260.497C139.83 260.392 139.471 259.972 139.454 259.464C139.436 258.957 139.76 258.51 140.25 258.371C167.607 250.644 184.808 244.055 220.253 227.718C220.621 227.552 221.059 227.596 221.383 227.841C221.707 228.086 221.864 228.497 221.794 228.9C219.159 243.976 217.793 251.475 215.097 266.185C215.001 266.692 214.563 267.068 214.047 267.077C209.486 267.191 205.258 267.261 201.248 267.261ZM145.179 259.228C171.047 264.303 186.542 265.563 213.093 264.907C215.561 251.44 216.909 244.003 219.264 230.562C186.848 245.464 169.76 252.105 145.179 259.228Z" fill="white" fill-opacity="0.02"/>
<path d="M214.012 267.077C213.758 267.077 213.513 266.99 213.311 266.823C213.005 266.57 212.865 266.176 212.935 265.782C215.631 251.073 216.988 243.582 219.623 228.514C219.719 227.972 220.192 227.578 220.752 227.613C255.611 229.302 272.077 228.497 300.825 223.693C301.351 223.606 301.867 223.912 302.042 224.419C302.217 224.927 301.998 225.478 301.526 225.741C266.124 244.895 248.336 253.987 214.397 267.016C214.283 267.051 214.152 267.077 214.012 267.077ZM221.619 229.845C219.203 243.644 217.855 251.09 215.439 264.259C246.244 252.359 263.778 243.591 294.794 226.878C269.889 230.746 253.379 231.35 221.619 229.845Z" fill="white" fill-opacity="0.02"/>
<path d="M302.935 258.222C302.839 258.222 302.751 258.213 302.655 258.187C302.191 258.073 301.876 257.635 301.841 257.163L299.915 224.839C299.88 224.306 300.239 223.833 300.755 223.711C318.132 219.668 326.58 217.069 341.838 211.084C342.311 210.9 342.845 211.058 343.134 211.478C343.422 211.889 343.396 212.449 343.064 212.825C332.445 224.918 304.695 256.559 303.828 257.723C303.635 258.047 303.303 258.222 302.935 258.222ZM302.156 225.627L303.863 254.319C309.693 247.546 327.77 226.931 338.476 214.733C325.844 219.554 317.441 222.048 302.156 225.627Z" fill="white" fill-opacity="0.02"/>
<path d="M243.688 286.03C243.329 286.03 242.979 285.846 242.769 285.531C242.497 285.111 242.541 284.56 242.883 284.193C265.083 260.243 277.408 247.301 300.23 223.999C300.536 223.693 300.992 223.588 301.394 223.737C301.797 223.886 302.077 224.262 302.103 224.699L304.029 257.023C304.056 257.425 303.854 257.81 303.504 258.021C280.306 272.073 268.077 277.822 244.038 285.969C243.924 286.013 243.802 286.03 243.688 286.03ZM300.064 227.298C277.732 250.128 266.037 262.466 247.443 282.495C268.479 275.18 280.481 269.396 301.797 256.498L300.064 227.298Z" fill="white" fill-opacity="0.02"/>
<path d="M243.688 286.03C243.495 286.03 243.303 285.978 243.136 285.881C232.78 279.791 226.635 275.792 213.408 266.893C213.066 266.666 212.883 266.272 212.935 265.861C212.979 265.458 213.25 265.108 213.627 264.959C247.443 251.983 265.188 242.909 300.493 223.807C300.965 223.553 301.561 223.676 301.885 224.113C302.209 224.542 302.173 225.154 301.797 225.539C277.137 250.723 265.345 263.192 244.493 285.689C244.274 285.916 243.986 286.03 243.688 286.03ZM216.367 266.246C228.062 274.104 234.085 277.997 243.478 283.545C263.621 261.818 275.658 249.139 295.188 229.153C264.54 245.665 246.988 254.415 216.367 266.246Z" fill="white" fill-opacity="0.02"/>
<path d="M151.884 294.483C151.727 294.483 151.561 294.448 151.412 294.378C118.917 278.934 101.575 267.821 69.7456 246.155C69.2816 245.84 69.1328 245.236 69.3954 244.738C69.658 244.248 70.2445 244.029 70.761 244.23C95.2898 253.803 109.655 256.699 140.601 258.327C141.056 258.353 141.441 258.651 141.581 259.079C146.159 273.01 148.365 279.555 152.917 293.039C153.058 293.459 152.935 293.914 152.611 294.203C152.41 294.387 152.147 294.483 151.884 294.483ZM78.5783 249.498C104.954 267.322 121.771 277.735 150.02 291.289C146.168 279.905 143.866 273.036 139.734 260.471C112.78 259.027 98.3362 256.568 78.5783 249.498Z" fill="white" fill-opacity="0.02"/>
<path d="M70.3671 246.339C70.1745 246.339 69.9819 246.286 69.8068 246.181L44.3414 230.921C44.0875 230.772 43.9124 230.527 43.8424 230.247L39.3428 212.003C39.2203 211.513 39.4479 211.014 39.8943 210.778C40.3408 210.541 40.8835 210.638 41.2162 211.005C53.4806 224.542 59.5296 231.28 71.1812 244.519C71.5401 244.921 71.5489 245.525 71.1987 245.945C70.9886 246.208 70.6822 246.339 70.3671 246.339ZM45.8558 229.285L64.887 240.695C56.9034 231.656 51.2833 225.391 42.503 215.695L45.8558 229.285Z" fill="white" fill-opacity="0.02"/>
<path d="M151.884 294.483C151.368 294.483 150.922 294.124 150.817 293.608C150.703 293.065 151.018 292.523 151.552 292.348C172.675 285.479 185.99 279.607 213.504 265.021C213.863 264.828 214.292 264.854 214.625 265.082C227.808 273.964 233.936 277.936 244.239 284C244.651 284.245 244.852 284.718 244.756 285.181C244.651 285.645 244.266 285.986 243.793 286.03L151.99 294.483C151.955 294.483 151.919 294.483 151.884 294.483ZM213.951 267.261C190.682 279.581 177.551 285.663 161.076 291.447L240.23 284.158C231.651 279.047 225.532 275.057 213.951 267.261Z" fill="white" fill-opacity="0.02"/>
<path d="M243.688 286.03C243.233 286.03 242.804 285.741 242.655 285.286C242.462 284.718 242.769 284.096 243.338 283.895C267.192 275.81 279.334 270.105 302.366 256.148C302.795 255.885 303.346 255.955 303.705 256.305C304.064 256.655 304.134 257.207 303.88 257.644C300.02 264.154 298.077 267.296 293.953 273.631C293.805 273.867 293.56 274.034 293.288 274.104C280.008 277.271 245.299 285.575 244.029 285.969C243.924 286.013 243.802 286.03 243.688 286.03ZM299.766 260.278C285.348 268.888 275.08 274.2 262.597 279.205C274.73 276.291 288.745 272.94 292.351 272.082C295.442 267.331 297.297 264.382 299.766 260.278Z" fill="white" fill-opacity="0.02"/>
<path d="M151.884 294.483C151.429 294.483 151 294.194 150.852 293.739C146.413 280.605 144.076 273.675 139.506 259.762C139.384 259.394 139.471 258.983 139.725 258.694C139.988 258.406 140.382 258.274 140.758 258.353C169.655 264.224 185.386 265.633 213.985 264.898C214.484 264.872 214.94 265.222 215.071 265.712C215.202 266.202 214.975 266.718 214.528 266.955C186.883 281.611 173.489 287.518 152.226 294.43C152.112 294.465 151.998 294.483 151.884 294.483ZM142.168 260.864C146.238 273.255 148.444 279.791 152.576 292.015C172.045 285.636 185.036 279.984 209.407 267.182C184.064 267.637 168.526 266.15 142.168 260.864Z" fill="white" fill-opacity="0.02"/>
<path d="M375.436 154.609C374.928 154.609 374.482 154.259 374.368 153.752L361.946 96.8487C361.885 96.5512 361.946 96.2449 362.112 95.9999L375.165 76.9593C375.436 76.5655 375.935 76.3905 376.399 76.5305C376.854 76.6705 377.169 77.0993 377.169 77.5805L376.539 153.533C376.53 154.093 376.11 154.557 375.558 154.609C375.515 154.609 375.48 154.609 375.436 154.609ZM364.187 96.84L374.42 143.742L374.937 81.1419L364.187 96.84Z" fill="white" fill-opacity="0.02"/>
<path d="M7.92468 63.4488C7.70583 63.4488 7.49571 63.3875 7.30312 63.2563C6.86542 62.95 6.70786 62.3725 6.93547 61.8912L33.0925 6.20432C33.3113 5.74931 33.8103 5.49554 34.3005 5.60055C34.7995 5.70555 35.1584 6.13432 35.1759 6.63308L36.0688 34.3278C36.0776 34.6253 35.9638 34.9141 35.7624 35.1241L8.72127 63.1163C8.50241 63.335 8.21356 63.4488 7.92468 63.4488ZM33.1275 11.262L11.7151 56.8598L33.8541 33.9428L33.1275 11.262Z" fill="white" fill-opacity="0.02"/>
<path d="M306.822 -29.1994C306.699 -29.1994 306.568 -29.2169 306.445 -29.2694L286.924 -36.3834C286.81 -36.4272 286.705 -36.4884 286.609 -36.5584L253.519 -63.3956C253.063 -63.7631 252.985 -64.4194 253.326 -64.8831C253.667 -65.3469 254.315 -65.4782 254.806 -65.1631L307.426 -31.212C307.89 -30.9057 308.065 -30.3019 307.811 -29.8032C307.618 -29.4269 307.233 -29.1994 306.822 -29.1994ZM287.843 -38.3697L298.042 -34.6596L270.554 -52.3965L287.843 -38.3697Z" fill="white" fill-opacity="0.02"/>
<path d="M302.935 258.187C302.611 258.187 302.287 258.038 302.077 257.767C301.753 257.355 301.771 256.769 302.112 256.375L341.426 211.381C341.794 210.953 342.433 210.883 342.888 211.215C343.344 211.548 343.475 212.169 343.195 212.659L322.579 247.993C322.474 248.168 322.325 248.316 322.133 248.413L303.443 258.073C303.276 258.143 303.11 258.187 302.935 258.187ZM335.518 221.47L307.548 253.479L320.846 246.61L335.518 221.47Z" fill="white" fill-opacity="0.02"/>
<path d="M293.034 274.139C292.78 274.139 292.535 274.051 292.334 273.885C291.914 273.535 291.817 272.931 292.106 272.467L302.007 256.515C302.112 256.349 302.261 256.209 302.436 256.122L321.126 246.461C321.616 246.208 322.22 246.356 322.527 246.811C322.842 247.266 322.763 247.879 322.36 248.246L293.77 273.859C293.56 274.042 293.297 274.139 293.034 274.139ZM303.705 257.924L297.989 267.138L314.508 252.342L303.705 257.924Z" fill="white" fill-opacity="0.02"/>
</svg>
